<svg width="30" height="30" viewBox="0 0 30 30" fill="none" xmlns="http://www.w3.org/2000/svg">
<path d="M22.6301 5.28998C21.6701 5.28998 20.9001 6.06998 20.9001 7.01998C20.9001 7.96998 21.6801 8.75998 22.6301 8.75998C23.5801 8.75998 24.3601 7.97998 24.3601 7.01998C24.3601 6.05998 23.5801 5.28998 22.6301 5.28998Z" fill="white"/>
<path d="M14.9201 7.51001C10.9001 7.51001 7.63013 10.78 7.63013 14.8C7.63013 18.82 10.9001 22.09 14.9201 22.09C18.9401 22.09 22.2101 18.82 22.2101 14.8C22.2101 10.78 18.9401 7.51001 14.9201 7.51001ZM14.9201 19.47C12.3501 19.47 10.2501 17.38 10.2501 14.8C10.2501 12.22 12.3401 10.13 14.9201 10.13C17.5001 10.13 19.5901 12.22 19.5901 14.8C19.5901 17.38 17.5001 19.47 14.9201 19.47Z" fill="white"/>
<path d="M20.71 29.6H8.89C3.99 29.6 0 25.61 0 20.71V8.89C0 3.99 3.99 0 8.89 0H20.7C25.6 0 29.59 3.99 29.59 8.89V20.71C29.59 25.61 25.6 29.6 20.7 29.6H20.71ZM8.89 2.79C5.52 2.79 2.79 5.53 2.79 8.89V20.71C2.79 24.08 5.53 26.81 8.89 26.81H20.7C24.07 26.81 26.81 24.07 26.81 20.71V8.89C26.81 5.52 24.07 2.79 20.7 2.79H8.89Z" fill="white"/>
</svg>
