<svg width="30" height="30" viewBox="0 0 30 30" fill="none" xmlns="http://www.w3.org/2000/svg">
<path d="M0.00999999 29.6L2.13 21.68C0.93 19.51 0.3 17.08 0.3 14.62C0.3 6.56 6.86 0 14.91 0C22.96 0 29.53 6.56 29.53 14.62C29.53 22.68 22.97 29.24 14.91 29.24C12.49 29.24 10.1 28.63 7.96 27.47L0 29.6H0.00999999ZM8.36 24.5L8.86 24.8C10.7 25.9 12.79 26.48 14.91 26.48C21.45 26.48 26.76 21.16 26.76 14.63C26.76 8.1 21.45 2.77 14.91 2.77C8.37 2.77 3.06 8.08 3.06 14.62C3.06 16.78 3.66 18.9 4.79 20.77L5.1 21.27L3.92 25.69L8.36 24.5Z" fill="white"/>
<path fill-rule="evenodd" clip-rule="evenodd" d="M20.35 16.65C19.75 16.29 18.97 15.89 18.26 16.18C17.72 16.4 17.37 17.25 17.02 17.69C16.84 17.91 16.62 17.95 16.35 17.84C14.31 17.03 12.75 15.66 11.62 13.79C11.43 13.5 11.46 13.27 11.69 13C12.03 12.6 12.46 12.14 12.55 11.6C12.64 11.06 12.39 10.43 12.17 9.95001C11.88 9.34001 11.57 8.46001 10.95 8.11001C10.38 7.79001 9.64004 7.97001 9.14004 8.38001C8.27004 9.09001 7.85004 10.2 7.86004 11.3C7.86004 11.61 7.90004 11.92 7.97004 12.23C8.15004 12.96 8.48004 13.63 8.86004 14.28C9.14004 14.77 9.45004 15.24 9.79004 15.69C10.88 17.17 12.24 18.46 13.81 19.42C14.6 19.9 15.44 20.32 16.32 20.61C17.3 20.93 18.18 21.27 19.24 21.07C20.35 20.86 21.45 20.17 21.89 19.1C22.02 18.78 22.09 18.43 22.01 18.1C21.86 17.41 20.92 17 20.36 16.66L20.35 16.65Z" fill="white"/>
</svg>
