<svg width="19" height="22" viewBox="0 0 19 22" fill="none" xmlns="http://www.w3.org/2000/svg">
<path d="M18.4991 2.3677H13.6679C13.4489 2.3677 13.2573 2.23084 13.1843 2.02555L12.8057 0.935219C12.6095 0.37865 12.0849 0 11.4918 0H7.44982C6.85675 0 6.33212 0.374088 6.13595 0.935219L5.7573 2.02555C5.68431 2.23084 5.4927 2.3677 5.27372 2.3677H0.442518C0.196168 2.3677 0 2.56387 0 2.81022V3.66332C0 3.90967 0.196168 4.10584 0.442518 4.10584H18.4991C18.7454 4.10584 18.9416 3.90967 18.9416 3.66332V2.81022C18.9416 2.56387 18.7454 2.3677 18.4991 2.3677ZM7.31296 1.35037C7.34489 1.26369 7.42701 1.20438 7.51825 1.20438H11.4234C11.5146 1.20438 11.6013 1.26369 11.6286 1.35037L11.9845 2.3677H6.95712L7.31296 1.35037Z" fill="white"/>
<path d="M1.14502 4.86328L3.02458 20.2009C3.13407 21.1042 3.90049 21.7793 4.80834 21.7793H14.1332C15.041 21.7793 15.8074 21.1042 15.9169 20.2009L17.7965 4.86328H1.14502ZM6.30469 19.325C6.30469 19.325 6.27732 19.325 6.25907 19.325C5.98535 19.325 5.75268 19.1151 5.72987 18.8368L4.84027 7.88792C4.81746 7.59595 5.03644 7.34047 5.32841 7.31766C5.62038 7.29485 5.87586 7.51383 5.89867 7.8058L6.78827 18.7547C6.81108 19.0467 6.5921 19.3022 6.30013 19.325H6.30469ZM9.99995 18.7958C9.99995 19.0877 9.76272 19.325 9.47075 19.325C9.17878 19.325 8.94155 19.0877 8.94155 18.7958V7.84686C8.94155 7.55489 9.17878 7.31766 9.47075 7.31766C9.76272 7.31766 9.99995 7.55489 9.99995 7.84686V18.7958ZM14.0921 7.88792L13.2025 18.8368C13.1797 19.1151 12.947 19.325 12.6733 19.325C12.6596 19.325 12.6459 19.325 12.6277 19.325C12.3357 19.3022 12.1167 19.0467 12.1395 18.7547L13.0291 7.8058C13.052 7.51383 13.3074 7.29485 13.5994 7.31766C13.8914 7.34047 14.1103 7.59595 14.0875 7.88792H14.0921Z" fill="white"/>
</svg>
