<svg width="24" height="24" viewBox="0 0 24 24" fill="none" xmlns="http://www.w3.org/2000/svg">
  <!-- Documento base -->
  <rect x="4" y="2" width="14" height="18" rx="2" stroke="#004D61" stroke-width="2" fill="white"/>
  
  <!-- Linhas de texto -->
  <rect x="6" y="6" width="10" height="1.5" fill="#004D61" opacity="0.7"/>
  <rect x="6" y="9" width="8" height="1.5" fill="#004D61" opacity="0.7"/>
  <rect x="6" y="12" width="9" height="1.5" fill="#004D61" opacity="0.7"/>
  <rect x="6" y="15" width="6" height="1.5" fill="#004D61" opacity="0.7"/>
  
  <!-- CÈrebro/IA no canto -->
  <circle cx="19" cy="5" r="3.5" fill="#FF5031"/>
  <path d="M17 4c0-1 0.5-1.5 2-1.5s2 0.5 2 1.5-0.5 1.5-2 1.5-2-0.5-2-1.5z" fill="white"/>
  <circle cx="18" cy="5.5" r="0.3" fill="white"/>
  <circle cx="20" cy="5.5" r="0.3" fill="white"/>
  <path d="M18.5 6c0.5 0.3 1 0.3 1.5 0" stroke="white" stroke-width="0.3" fill="none"/>
  
  <!-- Sparkles de IA -->
  <path d="M16 8l0.5-1.5L18 6l-1.5-0.5L16 4l-0.5 1.5L14 6l1.5 0.5L16 8z" fill="#FF5031" opacity="0.8"/>
  <path d="M20 9l0.3-0.8L21 8l-0.7-0.2L20 7l-0.3 0.8L19 8l0.7 0.2L20 9z" fill="#FF5031" opacity="0.6"/>
</svg>