<svg width="80" height="48" viewBox="0 0 80 48" fill="none" xmlns="http://www.w3.org/2000/svg">
<path d="M6.016 34.3908C7.44533 34.3908 8.56533 34.7322 9.376 35.4148C10.1867 36.0975 10.592 37.0362 10.592 38.2308C10.592 39.4255 10.1867 40.3642 9.376 41.0468C8.56533 41.7188 7.44533 42.0548 6.016 42.0548H3.008V45.5908H1.824V34.3908H6.016ZM5.984 41.0148C7.09333 41.0148 7.94133 40.7748 8.528 40.2948C9.11467 39.8042 9.408 39.1162 9.408 38.2308C9.408 37.3242 9.11467 36.6308 8.528 36.1508C7.94133 35.6602 7.09333 35.4148 5.984 35.4148H3.008V41.0148H5.984ZM13.3724 33.7188H14.5084V45.5908H13.3724V33.7188ZM20.9173 37.1108C22.0159 37.1108 22.8586 37.3882 23.4453 37.9428C24.0319 38.4868 24.3253 39.2975 24.3253 40.3748V45.5908H23.2373V44.2788C22.9813 44.7162 22.6026 45.0575 22.1013 45.3028C21.6106 45.5482 21.0239 45.6708 20.3412 45.6708C19.4026 45.6708 18.6559 45.4468 18.1012 44.9988C17.5466 44.5508 17.2692 43.9588 17.2692 43.2228C17.2692 42.5082 17.5252 41.9322 18.0372 41.4948C18.5599 41.0575 19.3866 40.8388 20.5173 40.8388H23.1892V40.3268C23.1892 39.6015 22.9866 39.0522 22.5813 38.6788C22.1759 38.2948 21.5839 38.1028 20.8053 38.1028C20.2719 38.1028 19.7599 38.1935 19.2692 38.3748C18.7786 38.5455 18.3572 38.7855 18.0052 39.0948L17.4932 38.2468C17.9199 37.8842 18.4319 37.6068 19.0292 37.4148C19.6266 37.2122 20.2559 37.1108 20.9173 37.1108ZM20.5173 44.7748C21.1573 44.7748 21.7066 44.6308 22.1653 44.3428C22.6239 44.0442 22.9653 43.6175 23.1892 43.0628V41.6868H20.5493C19.1092 41.6868 18.3892 42.1882 18.3892 43.1908C18.3892 43.6815 18.5759 44.0708 18.9492 44.3588C19.3226 44.6362 19.8452 44.7748 20.5173 44.7748ZM32.1468 45.0788C31.9334 45.2708 31.6668 45.4202 31.3468 45.5268C31.0374 45.6228 30.7121 45.6708 30.3708 45.6708C29.5814 45.6708 28.9734 45.4575 28.5468 45.0308C28.1201 44.6042 27.9068 44.0015 27.9068 43.2228V38.1348H26.4028V37.1748H27.9068V35.3348H29.0428V37.1748H31.6028V38.1348H29.0428V43.1588C29.0428 43.6602 29.1654 44.0442 29.4108 44.3108C29.6668 44.5668 30.0294 44.6948 30.4988 44.6948C30.7334 44.6948 30.9574 44.6575 31.1708 44.5828C31.3948 44.5082 31.5868 44.4015 31.7468 44.2628L32.1468 45.0788ZM34.5187 37.1748H35.6547V45.5908H34.5187V37.1748ZM35.0947 35.3348C34.8601 35.3348 34.6627 35.2548 34.5027 35.0948C34.3427 34.9348 34.2627 34.7428 34.2627 34.5188C34.2627 34.3055 34.3427 34.1188 34.5027 33.9588C34.6627 33.7988 34.8601 33.7188 35.0947 33.7188C35.3294 33.7188 35.5267 33.7988 35.6867 33.9588C35.8467 34.1082 35.9267 34.2895 35.9267 34.5028C35.9267 34.7375 35.8467 34.9348 35.6867 35.0948C35.5267 35.2548 35.3294 35.3348 35.0947 35.3348ZM43.4076 37.1108C44.4636 37.1108 45.301 37.4202 45.9196 38.0388C46.549 38.6468 46.8636 39.5375 46.8636 40.7108V45.5908H45.7276V40.8228C45.7276 39.9482 45.509 39.2815 45.0716 38.8228C44.6343 38.3642 44.0103 38.1348 43.1996 38.1348C42.293 38.1348 41.573 38.4068 41.0396 38.9508C40.517 39.4842 40.2556 40.2255 40.2556 41.1748V45.5908H39.1196V37.1748H40.2076V38.7268C40.517 38.2148 40.9436 37.8202 41.4876 37.5428C42.0423 37.2548 42.6823 37.1108 43.4076 37.1108ZM57.8358 37.1748V45.5908H56.7478V44.0548C56.4491 44.5668 56.0384 44.9668 55.5158 45.2548C54.9931 45.5322 54.3958 45.6708 53.7238 45.6708C52.6251 45.6708 51.7558 45.3668 51.1158 44.7588C50.4864 44.1402 50.1718 43.2388 50.1718 42.0548V37.1748H51.3078V41.9428C51.3078 42.8282 51.5264 43.5002 51.9638 43.9588C52.4011 44.4175 53.0251 44.6468 53.8358 44.6468C54.7211 44.6468 55.4198 44.3802 55.9318 43.8468C56.4438 43.3028 56.6998 42.5508 56.6998 41.5908V37.1748H57.8358ZM71.8174 37.1108C72.8734 37.1108 73.7 37.4148 74.2974 38.0228C74.9054 38.6308 75.2094 39.5268 75.2094 40.7108V45.5908H74.0734V40.8228C74.0734 39.9482 73.86 39.2815 73.4334 38.8228C73.0174 38.3642 72.4254 38.1348 71.6574 38.1348C70.7827 38.1348 70.0947 38.4068 69.5934 38.9508C69.092 39.4842 68.8414 40.2255 68.8414 41.1748V45.5908H67.7054V40.8228C67.7054 39.9482 67.492 39.2815 67.0654 38.8228C66.6494 38.3642 66.052 38.1348 65.2734 38.1348C64.4094 38.1348 63.7214 38.4068 63.2094 38.9508C62.708 39.4842 62.4574 40.2255 62.4574 41.1748V45.5908H61.3214V37.1748H62.4094V38.7108C62.708 38.1988 63.124 37.8042 63.6574 37.5268C64.1907 37.2495 64.804 37.1108 65.4974 37.1108C66.2014 37.1108 66.8094 37.2602 67.3214 37.5588C67.844 37.8575 68.2334 38.3002 68.4894 38.8868C68.7987 38.3322 69.2414 37.9002 69.8174 37.5908C70.404 37.2708 71.0707 37.1108 71.8174 37.1108Z" fill="white"/>
<path d="M0.126709 16.7654L2.44543 0.192908C3.73717 0.0643026 5.53804 0 7.84803 0C9.87291 0 11.2752 0.321513 12.0549 0.961616C12.8346 1.60172 13.1081 2.75624 12.8666 4.41934C12.692 5.62063 12.3487 6.51795 11.8396 7.10836C11.3305 7.7017 10.5711 8.04659 9.56743 8.14012L9.54416 8.25996C11.7436 8.43533 12.6368 9.92598 12.2207 12.729C11.9647 14.395 11.4236 15.5145 10.5944 16.0903C9.76527 16.6661 8.39498 16.9554 6.48356 16.9554C3.69644 16.9583 1.57846 16.894 0.126709 16.7654ZM2.73346 14.8948L6.12863 14.9182C7.43491 14.9182 8.35134 14.7311 8.87793 14.3541C9.40451 13.977 9.74781 13.2376 9.90491 12.1327C10.0649 10.949 9.93982 10.151 9.53543 9.74184C9.12813 9.33265 8.28152 9.1222 6.98978 9.10466H3.54806L2.73346 14.8948ZM3.8099 7.2545H7.10906C8.25533 7.2545 9.08158 7.06159 9.58489 6.6787C10.0882 6.29581 10.417 5.57387 10.577 4.5158C10.7195 3.50741 10.5915 2.84393 10.1929 2.52242C9.79436 2.20383 8.97393 2.04307 7.73166 2.04307H4.5285L3.8099 7.2545Z" fill="white"/>
<path d="M23.2705 5.04492H25.6852C24.8241 8.85631 23.7011 12.0831 22.3133 14.7254C21.0711 17.0958 19.8375 18.7764 18.6185 19.7702C17.3995 20.764 15.9449 21.4041 14.2546 21.6905L13.824 20.0333C14.8451 19.7936 15.7354 19.4341 16.5005 18.9518C17.2657 18.4725 17.9988 17.7418 18.7 16.7655H17.6235C17.257 16.7655 16.9457 16.6662 16.6926 16.4645C16.4365 16.2657 16.2765 15.988 16.2154 15.6344L13.9694 5.04199H16.4104L18.1792 14.5295C18.2258 14.8014 18.3858 14.9387 18.6563 14.9387H19.8288C19.8928 14.8277 19.9801 14.6611 20.0906 14.4477C20.2012 14.2314 20.2739 14.0911 20.3059 14.0268C21.7082 11.0981 22.6974 8.10514 23.2705 5.04492Z" fill="white"/>
<path d="M30.4417 6.84517L29.5078 13.4274C29.4292 13.9886 29.4787 14.3686 29.662 14.5673C29.8453 14.769 30.2148 14.8684 30.7733 14.8684H32.5189L32.6149 16.6689C31.9138 16.8764 31.0061 16.9816 29.8889 16.9816C28.8532 16.9816 28.1084 16.6922 27.6546 16.1164C27.2007 15.5406 27.0436 14.7164 27.1891 13.6437L28.1462 6.84517H26.0195L26.2348 5.16453L28.411 5.0447L28.9143 1.61035H31.1865L30.7093 5.0447H34.2965L34.058 6.84517H30.4417Z" fill="white"/>
<path d="M43.9032 14.8221L44.0458 16.3829C42.914 16.8301 41.311 17.0551 39.2396 17.0551C37.2467 17.0551 35.8677 16.532 35.1025 15.4827C34.3374 14.4334 34.0988 12.8053 34.3839 10.5957C34.6865 8.33922 35.3033 6.79596 36.2372 5.97172C37.1682 5.14747 38.7043 4.73535 40.8397 4.73535C42.658 4.73535 43.8916 5.05686 44.5462 5.69697C45.2008 6.33707 45.4393 7.28115 45.2648 8.53213C45.0728 9.66912 44.6276 10.4904 43.9265 10.9932C43.2253 11.4988 42.1489 11.8057 40.7001 11.9168L36.659 12.2763C36.6416 13.3811 36.8743 14.1294 37.3514 14.521C37.8286 14.9127 38.5792 15.1085 39.5974 15.1085C40.6826 15.1085 42.1169 15.015 43.9032 14.8221ZM36.8016 10.546L40.7001 10.1865C41.4332 10.1397 41.9685 9.98186 42.3031 9.7188C42.6377 9.45575 42.853 8.99394 42.949 8.3363C43.045 7.58512 42.9199 7.12039 42.5795 6.9421C42.2362 6.76673 41.5409 6.67904 40.4877 6.67904C39.2774 6.67904 38.4192 6.93041 37.9188 7.43606C37.4125 7.93879 37.0401 8.9764 36.8016 10.546Z" fill="white"/>
</svg>
