<svg width="662" height="413" viewBox="0 0 662 413" fill="none" xmlns="http://www.w3.org/2000/svg">
<g opacity="0.3">
<rect width="39.3175" height="39.3175" transform="matrix(1.19249e-08 -1 -1 -1.19249e-08 131.738 161.121)" fill="#D9D9D9"/>
<rect width="39.3175" height="39.3175" transform="matrix(1.19249e-08 -1 -1 -1.19249e-08 131.738 121.804)" fill="#D9D9D9" fill-opacity="0.5"/>
<rect width="39.3175" height="39.3175" transform="matrix(1.19249e-08 -1 -1 -1.19249e-08 92.4206 121.804)" fill="#D9D9D9" fill-opacity="0.9"/>
<rect width="39.3175" height="39.3175" transform="matrix(1.19249e-08 -1 -1 -1.19249e-08 131.738 82.4862)" fill="#D9D9D9" fill-opacity="0.9"/>
<rect width="39.3175" height="39.3175" transform="matrix(1.19249e-08 -1 -1 -1.19249e-08 131.738 43.169)" fill="#D9D9D9" fill-opacity="0.5"/>
<rect width="39.3175" height="39.3175" transform="matrix(1.19249e-08 -1 -1 -1.19249e-08 171.055 43.169)" fill="#D9D9D9" fill-opacity="0.9"/>
<rect width="39.3175" height="39.3175" transform="matrix(1.19249e-08 -1 -1 -1.19249e-08 55.3175 161.121)" fill="#D9D9D9" fill-opacity="0.9"/>
</g>
<g opacity="0.3">
<rect width="39.3175" height="39.3175" transform="matrix(1.19249e-08 -1 -1 -1.19249e-08 621.738 412.121)" fill="#D9D9D9"/>
<rect width="39.3175" height="39.3175" transform="matrix(1.19249e-08 -1 -1 -1.19249e-08 621.738 372.804)" fill="#D9D9D9" fill-opacity="0.5"/>
<rect width="39.3175" height="39.3175" transform="matrix(1.19249e-08 -1 -1 -1.19249e-08 582.42 372.804)" fill="#D9D9D9" fill-opacity="0.9"/>
<rect width="39.3175" height="39.3175" transform="matrix(1.19249e-08 -1 -1 -1.19249e-08 621.738 333.486)" fill="#D9D9D9" fill-opacity="0.9"/>
<rect width="39.3175" height="39.3175" transform="matrix(1.19249e-08 -1 -1 -1.19249e-08 621.738 294.169)" fill="#D9D9D9" fill-opacity="0.5"/>
<rect width="39.3175" height="39.3175" transform="matrix(1.19249e-08 -1 -1 -1.19249e-08 661.055 294.169)" fill="#D9D9D9" fill-opacity="0.9"/>
<rect width="39.3175" height="39.3175" transform="matrix(1.19249e-08 -1 -1 -1.19249e-08 545.317 412.121)" fill="#D9D9D9" fill-opacity="0.9"/>
</g>
<path d="M358.746 276.112C358.953 276.765 359.249 277.724 359.606 278.941C360.319 281.377 361.276 284.851 362.248 289C364.176 297.228 366.156 308.094 366.421 318.778L344.583 332.208L344.974 333.117L366.217 327.418C365.716 333.889 364.367 339.961 361.747 344.968C355.601 356.716 348.005 362.74 339.862 364.747C331.703 366.758 322.891 364.762 314.272 360.253C305.653 355.744 298.988 349.642 295.988 341.794C292.992 333.96 293.611 324.284 299.757 312.536C302.805 306.709 308.013 301.469 314.149 296.881C320.28 292.296 327.31 288.383 333.966 285.202C340.62 282.023 346.89 279.58 351.497 277.933C353.8 277.109 355.687 276.484 356.997 276.065C357.652 275.856 358.163 275.698 358.51 275.593C358.532 275.586 358.552 275.579 358.572 275.573C358.62 275.72 358.679 275.9 358.746 276.112Z" stroke="#FF5031"/>
<path d="M359.769 274.488L359.897 274.515L359.905 274.512L359.922 274.515C359.887 274.677 359.844 274.881 359.789 275.123V275.125C359.213 277.727 357.572 284.766 354.868 293.767C354.742 294.18 354.62 294.592 354.49 295.009L354.489 295.012C353.024 299.806 351.274 305.104 349.23 310.556L349.229 310.557C348.718 311.926 348.199 313.269 347.672 314.586H347.671L347.668 314.594C347.514 315 347.354 315.404 347.191 315.8L347.189 315.804C344.942 321.39 342.616 326.505 340.21 331.149L339.601 332.313C332.473 345.769 324.722 355.054 316.466 360.101L316.382 359.963L316.311 359.84C325.432 354.26 333.059 343.853 339.23 332.212C339.433 331.836 339.644 331.448 339.844 331.052C342.456 326.017 344.808 320.774 346.897 315.583L346.896 315.582C347.061 315.18 347.225 314.771 347.386 314.365H347.387C350.109 307.499 352.377 300.767 354.195 294.841L354.194 294.84C354.325 294.419 354.45 293.995 354.572 293.581C357.528 283.8 359.202 276.389 359.621 274.457L359.769 274.488Z" fill="white" stroke="#FF5031"/>
<path d="M338.77 282.481C341.919 286.585 345.925 289.954 350.514 292.347V292.348C351.618 292.925 352.75 293.444 353.907 293.906C354.335 294.077 354.762 294.234 355.176 294.384L355.18 294.385C358.338 295.501 361.64 296.161 364.983 296.349C365.002 296.452 365.02 296.556 365.039 296.66C361.661 296.478 358.326 295.814 355.135 294.687L355.132 294.686L354.514 294.465C354.309 294.389 354.104 294.312 353.901 294.231L353.9 294.23L353.003 293.862C352.11 293.482 351.233 293.066 350.373 292.616C345.723 290.19 341.668 286.77 338.488 282.606C338.582 282.564 338.677 282.522 338.77 282.481Z" fill="white" stroke="#FF5031"/>
<path d="M327.561 288.03C328.364 293.474 330.416 298.662 333.56 303.186C336.843 307.909 341.22 311.769 346.317 314.436C346.43 314.495 346.56 314.561 346.69 314.622V314.623C346.893 314.73 347.099 314.833 347.305 314.934L347.93 315.228C354.016 318.043 360.771 319.071 367.412 318.2C367.414 318.302 367.416 318.405 367.418 318.507C360.752 319.373 353.975 318.346 347.862 315.536H347.861C347.459 315.348 347.06 315.153 346.659 314.95L346.649 314.945L346.176 314.705C341.111 312.055 336.75 308.237 333.455 303.565C330.226 298.988 328.112 293.721 327.278 288.185C327.372 288.133 327.467 288.082 327.561 288.03Z" fill="white" stroke="#FF5031"/>
<path d="M319.186 293.07C317.986 300.288 319.026 307.712 322.184 314.334C325.407 321.092 330.667 326.664 337.216 330.27L337.854 330.613C338.295 330.844 338.741 331.062 339.187 331.273L339.188 331.274C339.397 331.372 339.608 331.469 339.82 331.564L340.46 331.842C348.726 335.351 358 335.607 366.432 332.583C366.412 332.695 366.389 332.807 366.367 332.919C357.866 335.928 348.541 335.636 340.241 332.089H340.242C340.035 331.999 339.829 331.907 339.623 331.813L339.01 331.524L338.998 331.519L338.357 331.212L337.713 330.882C331 327.361 325.567 321.814 322.187 315.029C318.838 308.307 317.672 300.71 318.848 293.296C318.96 293.221 319.073 293.145 319.186 293.07Z" fill="white" stroke="#FF5031"/>
<path d="M87.104 277.646C87.4506 277.751 87.9618 277.909 88.6167 278.119C89.9267 278.537 91.8137 279.162 94.1167 279.986C98.7237 281.634 104.994 284.076 111.648 287.255C118.304 290.436 125.334 294.349 131.465 298.934C137.601 303.522 142.809 308.763 145.857 314.589C152.003 326.337 152.622 336.013 149.626 343.847C146.626 351.696 139.961 357.797 131.342 362.306C122.723 366.815 113.911 368.811 105.752 366.8C97.6088 364.793 90.0131 358.769 83.8667 347.021C81.2474 342.014 79.8968 335.942 79.396 329.471L100.64 335.17L101.031 334.261L79.1919 320.832C79.4571 310.147 81.4384 299.281 83.3658 291.053C84.3376 286.904 85.2946 283.43 86.0083 280.995C86.3652 279.777 86.6612 278.818 86.8677 278.165C86.935 277.953 86.9933 277.773 87.0406 277.626C87.0611 277.633 87.0822 277.639 87.104 277.646Z" stroke="#FF5031"/>
<path d="M85.9915 276.511C86.4109 278.442 88.086 285.856 91.0432 295.639C91.1644 296.053 91.2892 296.476 91.4202 296.896C93.2379 302.822 95.5064 309.554 98.2278 316.419C98.3889 316.825 98.5515 317.234 98.7171 317.636V317.637C100.545 322.179 102.574 326.761 104.802 331.208L105.77 333.105C105.97 333.501 106.18 333.89 106.384 334.265C112.554 345.906 120.181 356.313 129.302 361.893L129.232 362.016L129.148 362.155C120.892 357.108 113.14 347.823 106.013 334.367L105.404 333.203C102.998 328.558 100.672 323.443 98.4251 317.857L98.4241 317.853L98.1819 317.255C98.1021 317.053 98.0229 316.851 97.9456 316.647L97.9427 316.639L97.1575 314.644C96.898 313.973 96.6405 313.295 96.385 312.61L95.6321 310.573C93.9076 305.842 92.4065 301.261 91.1243 297.065L91.1233 297.062C90.9934 296.646 90.8716 296.234 90.7454 295.821C88.0414 286.819 86.4022 279.781 85.8255 277.179L85.8245 277.177L85.6907 276.568L85.7083 276.564L85.718 276.568L85.845 276.542L85.9915 276.511Z" fill="white" stroke="#FF5031"/>
<path d="M107.125 284.659C103.945 288.824 99.8906 292.244 95.2409 294.67C94.0946 295.269 92.9176 295.808 91.7145 296.283H91.7126C91.3075 296.445 90.8951 296.596 90.4831 296.739L90.4801 296.74C87.2885 297.868 83.9527 298.532 80.5749 298.714C80.5938 298.61 80.6119 298.506 80.6305 298.402C83.9743 298.215 87.2753 297.555 90.4342 296.438L90.4381 296.437C90.8515 296.287 91.278 296.13 91.7057 295.959L91.7067 295.96C92.8635 295.499 93.9967 294.978 95.1003 294.401L95.0993 294.4C99.6886 292.007 103.695 288.638 106.843 284.534C106.937 284.576 107.031 284.617 107.125 284.659Z" fill="white" stroke="#FF5031"/>
<path d="M118.336 290.239C117.502 295.775 115.388 301.042 112.159 305.619C108.864 310.29 104.503 314.109 99.4375 316.759C99.2746 316.844 99.1211 316.925 98.9659 316.999L98.9561 317.004C98.5543 317.207 98.155 317.401 97.753 317.59C91.6399 320.4 84.8613 321.427 78.1953 320.561C78.197 320.458 78.1992 320.356 78.2012 320.254C84.8436 321.125 91.6007 320.095 97.6875 317.278C98.1057 317.089 98.5179 316.889 98.9239 316.677L98.9229 316.676L99.2969 316.489C104.394 313.823 108.771 309.963 112.054 305.239C115.198 300.715 117.249 295.528 118.052 290.084C118.147 290.136 118.241 290.187 118.336 290.239Z" fill="white" stroke="#FF5031"/>
<path d="M126.766 295.351C127.941 302.764 126.777 310.361 123.428 317.082C120.047 323.867 114.614 329.415 107.901 332.936C107.471 333.161 107.044 333.377 106.616 333.572L106.605 333.577C106.401 333.677 106.196 333.773 105.991 333.867L105.375 334.141C97.075 337.689 87.748 337.982 79.2453 334.972C79.2236 334.86 79.2012 334.749 79.1808 334.636C87.6138 337.661 96.889 337.404 105.155 333.894C105.586 333.714 106.009 333.523 106.426 333.327L106.427 333.326C106.873 333.115 107.319 332.897 107.76 332.666H107.761C114.606 329.075 120.103 323.364 123.43 316.387C126.588 309.765 127.628 302.342 126.428 295.123C126.541 295.199 126.653 295.275 126.766 295.351Z" fill="white" stroke="#FF5031"/>
<path d="M187.394 315.402C188.172 315.651 189.293 316.022 190.662 316.511C193.4 317.491 197.126 318.943 201.08 320.832C205.035 322.722 209.207 325.044 212.843 327.763C216.484 330.486 219.558 333.584 221.353 337.015C224.993 343.973 225.345 349.672 223.588 354.267C221.825 358.877 217.903 362.478 212.798 365.149C207.692 367.82 202.498 368.989 197.706 367.808C192.928 366.631 188.447 363.093 184.807 356.135C183.303 353.26 182.504 349.779 182.19 346.051L194.561 349.37L194.953 348.461L182.052 340.527C182.221 334.223 183.388 327.818 184.527 322.956C185.104 320.49 185.673 318.426 186.097 316.979C186.309 316.256 186.485 315.686 186.608 315.299C186.623 315.253 186.636 315.209 186.649 315.169C186.842 315.228 187.092 315.306 187.394 315.402Z" stroke="#FF5031"/>
<path d="M197.186 348.141L197.55 348.835C201.816 356.89 206.475 362.478 211.468 365.517C211.541 365.563 211.614 365.603 211.686 365.649L211.89 365.31L212.082 364.982C206.61 361.741 202.018 355.518 198.295 348.494C198.173 348.268 198.049 348.04 197.932 347.807C196.382 344.82 194.986 341.708 193.746 338.625C193.647 338.387 193.551 338.144 193.454 337.901C191.838 333.822 190.49 329.823 189.409 326.3C189.332 326.052 189.258 325.801 189.186 325.554C187.381 319.585 186.381 315.101 186.166 314.105C186.138 313.984 186.124 313.917 186.121 313.901L185.745 313.979L185.74 313.978L185.361 314.058C185.365 314.073 185.409 314.3 185.504 314.715C185.848 316.269 186.826 320.467 188.439 325.835C188.513 326.077 188.587 326.328 188.664 326.576C189.538 329.435 190.582 332.595 191.802 335.848C192.107 336.665 192.417 337.467 192.732 338.253C192.825 338.498 192.921 338.741 193.019 338.978C194.36 342.312 195.749 345.366 197.186 348.141Z" fill="#FF5031"/>
<path d="M182.451 327.001C182.406 327.257 182.358 327.518 182.309 327.785C184.477 327.706 186.619 327.298 188.664 326.576C188.913 326.49 189.163 326.398 189.409 326.3C190.135 326.013 190.846 325.688 191.538 325.327C194.456 323.804 196.988 321.634 198.939 318.984C198.694 318.875 198.454 318.769 198.215 318.662C196.346 321.155 193.941 323.198 191.178 324.639C190.53 324.978 189.865 325.283 189.186 325.554C188.936 325.654 188.686 325.745 188.439 325.835C186.511 326.516 184.494 326.909 182.451 327.001Z" fill="#FF5031"/>
<path d="M180.965 339.953C180.957 340.215 180.954 340.475 180.95 340.736C185.058 341.321 189.248 340.711 193.019 338.978C193.262 338.864 193.503 338.747 193.745 338.624C193.844 338.577 193.94 338.527 194.036 338.476C197.093 336.877 199.726 334.572 201.715 331.752C203.704 328.933 204.992 325.68 205.474 322.263C205.232 322.127 204.988 321.996 204.744 321.865C204.32 325.215 203.092 328.412 201.165 331.185C199.237 333.958 196.668 336.223 193.676 337.788C193.604 337.826 193.528 337.866 193.454 337.9C193.217 338.024 192.976 338.142 192.732 338.252C189.058 339.952 184.969 340.543 180.965 339.953Z" fill="#FF5031"/>
<path d="M181.457 348.396C181.507 348.694 181.556 348.988 181.617 349.281C186.792 351.158 192.487 350.999 197.549 348.835C197.799 348.727 198.047 348.614 198.295 348.494C198.557 348.374 198.816 348.243 199.074 348.108C203.126 345.982 206.406 342.634 208.446 338.539C210.487 334.443 211.185 329.809 210.441 325.294C210.148 325.093 209.849 324.899 209.548 324.701C210.44 329.15 209.866 333.768 207.913 337.864C205.96 341.959 202.732 345.312 198.715 347.42C198.457 347.555 198.195 347.683 197.932 347.807C197.685 347.923 197.438 348.035 197.186 348.141C192.176 350.268 186.533 350.36 181.457 348.396Z" fill="#FF5031"/>
<path d="M442.353 226.885L442.297 226.88C431.916 225.166 420.383 225.166 407.04 226.882H407.034C406.701 226.886 406.371 226.824 406.062 226.7C405.754 226.575 405.472 226.391 405.235 226.158C404.998 225.924 404.809 225.646 404.68 225.339C404.55 225.032 404.483 224.703 404.482 224.37V212.286C404.482 211.62 404.748 210.981 405.219 210.509C405.69 210.038 406.329 209.773 406.996 209.772C418.746 208.24 430.645 208.241 442.395 209.775H442.4C443.059 209.784 443.688 210.054 444.15 210.524C444.612 210.994 444.87 211.627 444.868 212.286V224.37C444.867 225.037 444.602 225.676 444.13 226.147C443.659 226.619 443.02 226.884 442.353 226.885Z" fill="white"/>
<path d="M442.353 226.885L442.297 226.88C431.916 225.166 420.383 225.166 407.04 226.882H407.034C406.701 226.886 406.371 226.824 406.062 226.7C405.754 226.575 405.472 226.391 405.235 226.158C404.998 225.924 404.809 225.646 404.68 225.339C404.55 225.032 404.483 224.703 404.482 224.37V212.286C404.482 211.62 404.748 210.981 405.219 210.509C405.69 210.038 406.329 209.773 406.996 209.772C418.746 208.24 430.645 208.241 442.395 209.775H442.4C443.059 209.784 443.688 210.054 444.15 210.524C444.612 210.994 444.87 211.627 444.868 212.286V224.37C444.867 225.037 444.602 225.676 444.13 226.147C443.659 226.619 443.02 226.884 442.353 226.885ZM424.226 209.31C418.479 209.299 412.738 209.682 407.043 210.453C406.799 210.449 406.557 210.494 406.33 210.584C406.103 210.674 405.897 210.808 405.723 210.979C405.548 211.149 405.409 211.353 405.314 211.577C405.218 211.801 405.168 212.043 405.166 212.286V224.37C405.167 224.855 405.36 225.321 405.703 225.664C406.046 226.007 406.511 226.2 406.996 226.2C420.351 224.48 431.939 224.48 442.38 226.2C442.861 226.192 443.319 225.996 443.656 225.654C443.993 225.312 444.183 224.851 444.183 224.37V212.286C444.183 211.801 443.99 211.336 443.647 210.993C443.303 210.65 442.838 210.457 442.353 210.457C436.34 209.702 430.286 209.319 424.226 209.31Z" fill="#47A138"/>
<path d="M424.675 222.543C427.321 222.543 429.466 220.398 429.466 217.752C429.466 215.106 427.321 212.96 424.675 212.96C422.029 212.96 419.883 215.106 419.883 217.752C419.883 220.398 422.029 222.543 424.675 222.543Z" fill="#47A138"/>
<path d="M412.354 215.248H408.247C407.974 215.248 407.713 215.14 407.521 214.947C407.328 214.755 407.22 214.494 407.22 214.221V212.852C407.22 212.58 407.328 212.319 407.521 212.127C407.713 211.934 407.974 211.826 408.247 211.826H412.354C412.626 211.826 412.887 211.934 413.079 212.127C413.272 212.319 413.38 212.58 413.38 212.852V214.221C413.38 214.494 413.272 214.755 413.079 214.947C412.887 215.14 412.626 215.248 412.354 215.248Z" fill="#47A138"/>
<path d="M441.103 224.831H436.996C436.724 224.831 436.463 224.723 436.27 224.53C436.078 224.338 435.969 224.077 435.969 223.805V222.436C435.969 222.163 436.078 221.902 436.27 221.71C436.463 221.517 436.724 221.409 436.996 221.409H441.103C441.375 221.409 441.636 221.517 441.829 221.71C442.021 221.902 442.129 222.163 442.13 222.436V223.805C442.129 224.077 442.021 224.338 441.829 224.53C441.636 224.723 441.375 224.831 441.103 224.831Z" fill="#47A138"/>
<path d="M436.51 221.887L436.46 221.861C427.562 216.245 416.937 211.76 403.977 208.152L403.972 208.15C403.664 208.024 403.384 207.838 403.147 207.604C402.911 207.369 402.724 207.09 402.596 206.783C402.468 206.475 402.403 206.146 402.403 205.813C402.403 205.48 402.469 205.15 402.597 204.843L407.296 193.71C407.556 193.096 408.049 192.611 408.667 192.36C409.284 192.109 409.976 192.113 410.591 192.372C422.012 195.53 432.974 200.158 443.202 206.14L443.207 206.142C443.81 206.408 444.285 206.9 444.527 207.513C444.77 208.126 444.761 208.809 444.503 209.416L439.804 220.549C439.544 221.162 439.051 221.648 438.434 221.899C437.816 222.15 437.124 222.146 436.51 221.887Z" fill="white"/>
<path d="M436.51 221.887L436.46 221.861C427.562 216.245 416.937 211.76 403.977 208.152L403.972 208.15C403.664 208.024 403.384 207.838 403.147 207.604C402.911 207.369 402.724 207.09 402.596 206.783C402.468 206.475 402.403 206.146 402.403 205.813C402.403 205.48 402.469 205.15 402.597 204.843L407.296 193.71C407.556 193.096 408.049 192.611 408.667 192.36C409.284 192.109 409.976 192.113 410.591 192.372C422.012 195.53 432.974 200.158 443.202 206.14L443.207 206.142C443.81 206.408 444.285 206.9 444.527 207.513C444.77 208.126 444.761 208.809 444.503 209.416L439.804 220.549C439.544 221.162 439.051 221.648 438.434 221.899C437.816 222.15 437.124 222.146 436.51 221.887ZM426.644 198.646C421.353 196.402 415.916 194.521 410.369 193.017C410.146 192.919 409.905 192.866 409.661 192.861C409.417 192.856 409.175 192.899 408.948 192.988C408.721 193.077 408.514 193.211 408.339 193.38C408.163 193.55 408.024 193.752 407.927 193.976L403.228 205.109C403.04 205.556 403.036 206.06 403.219 206.509C403.402 206.959 403.755 207.317 404.202 207.507C417.174 211.115 427.851 215.622 436.801 221.267C437.246 221.447 437.745 221.444 438.189 221.26C438.632 221.076 438.986 220.725 439.173 220.282L443.873 209.15C444.061 208.703 444.064 208.199 443.881 207.75C443.699 207.3 443.345 206.941 442.898 206.752C437.652 203.719 432.223 201.012 426.644 198.646V198.646Z" fill="#47A138"/>
<path d="M423.774 211.39C426.421 211.39 428.566 209.244 428.566 206.598C428.566 203.952 426.421 201.806 423.774 201.806C421.128 201.806 418.983 203.952 418.983 206.598C418.983 209.244 421.128 211.39 423.774 211.39Z" fill="#47A138"/>
<path d="M413.397 199.5L409.613 197.903C409.362 197.797 409.164 197.595 409.061 197.343C408.959 197.091 408.961 196.809 409.066 196.558L409.599 195.296C409.705 195.046 409.906 194.847 410.158 194.745C410.411 194.642 410.693 194.644 410.944 194.75L414.728 196.347C414.978 196.453 415.177 196.654 415.279 196.906C415.382 197.159 415.38 197.441 415.274 197.692L414.742 198.953C414.636 199.204 414.435 199.402 414.182 199.505C413.93 199.607 413.648 199.606 413.397 199.5Z" fill="#47A138"/>
<path d="M436.156 219.509L432.372 217.912C432.122 217.806 431.923 217.604 431.821 217.352C431.718 217.1 431.72 216.818 431.826 216.567L432.358 215.305C432.464 215.055 432.666 214.856 432.918 214.754C433.17 214.651 433.453 214.653 433.703 214.759L437.487 216.356C437.738 216.462 437.936 216.663 438.039 216.915C438.141 217.168 438.139 217.45 438.034 217.701L437.501 218.962C437.395 219.213 437.194 219.411 436.942 219.514C436.69 219.616 436.407 219.615 436.156 219.509Z" fill="#47A138"/>
<path d="M447.138 204.596L446.961 204.906L447.196 205.173C447.81 205.876 448.263 206.705 448.522 207.601C448.781 208.497 448.84 209.44 448.696 210.362C448.551 211.284 448.207 212.163 447.686 212.937C447.165 213.711 446.481 214.362 445.681 214.843L445.678 214.845C444.337 215.664 442.742 215.962 441.195 215.684C439.648 215.406 438.257 214.57 437.286 213.334C436.314 212.099 435.829 210.55 435.923 208.981C436.017 207.412 436.684 205.932 437.796 204.822L437.857 204.76L437.894 204.683L447.333 184.897L458.798 184.157L447.138 204.596Z" stroke="black"/>
<path d="M538.752 328.24L538.751 359.609H531.302L527.432 328.24H538.752Z" stroke="black"/>
<path d="M541.392 368.244L514.333 368.243V367.9C514.333 365.107 515.443 362.428 517.418 360.453C519.393 358.478 522.072 357.369 524.865 357.369H524.866L541.393 357.369L541.392 368.244Z" fill="#2F2E41"/>
<path d="M481.254 328.24L481.253 359.609H473.804L469.934 328.24H481.254Z" stroke="black"/>
<path d="M483.894 368.244L456.835 368.243V367.9C456.835 365.107 457.944 362.428 459.92 360.453C461.895 358.478 464.573 357.369 467.367 357.369H467.367L483.894 357.369L483.894 368.244Z" fill="#2F2E41"/>
<path d="M460.174 184.511C460.174 184.511 457.866 217.382 462.412 233.937C466.958 250.492 467.77 350.605 467.77 350.605H483.008L496.216 214.329L526.664 351.085L541.179 350.087L533.219 188.939L460.174 184.511Z" fill="#2F2E41"/>
<path d="M526.922 73.7048L515.272 65.2039L495.752 69.4544L490.468 82.0098L481.363 86.5241C478.369 88.0084 475.781 90.1975 473.82 92.9031C471.859 95.6088 470.584 98.7501 470.105 102.057L457.098 191.882L533.219 188.939L542.434 83.1533C542.53 82.0483 542.404 80.9352 542.063 79.8798C541.721 78.8245 541.171 77.8484 540.446 77.0093C539.72 76.1703 538.834 75.4853 537.839 74.9948C536.844 74.5044 535.761 74.2186 534.653 74.1542L526.922 73.7048Z" fill="#CBCBCB"/>
<path d="M476.546 93.5402L469.516 103.018L438.894 196.416L453.248 202.163L476.231 158.641L476.546 93.5402Z" fill="#CBCBCB"/>
<path d="M501.717 13.614C514.308 13.614 524.516 23.8214 524.516 36.4128C524.516 49.0041 514.308 59.2116 501.717 59.2116C489.126 59.2116 478.918 49.0042 478.918 36.4128C478.918 23.8214 489.126 13.614 501.717 13.614Z" stroke="black"/>
<path d="M502.032 60.7657C511.422 60.7657 519.034 53.1537 519.034 43.7639C519.034 34.3741 511.422 26.7622 502.032 26.7622C492.642 26.7622 485.03 34.3741 485.03 43.7639C485.03 53.1537 492.642 60.7657 502.032 60.7657Z" fill="#389429"/>
<path d="M499.828 0.5C506.855 0.500015 512.551 6.19659 512.551 13.2236C512.551 20.2507 506.855 25.9473 499.828 25.9473C492.801 25.9473 487.104 20.2507 487.104 13.2236C487.104 6.19658 492.801 0.5 499.828 0.5Z" stroke="black"/>
<path d="M519.452 30.2347C519.383 33.63 518.467 36.8775 516.894 39.3032C515.32 41.7289 513.21 43.1466 511.001 43.2619C511.137 43.2745 511.271 43.2991 511.409 43.3018C513.69 43.3469 515.905 41.9973 517.567 39.5497C519.229 37.1022 520.201 33.7573 520.271 30.2509C520.34 26.7445 519.5 23.3637 517.937 20.8524C516.373 18.3411 514.213 16.9049 511.933 16.8598C511.794 16.857 511.659 16.8762 511.522 16.8834C513.725 17.0861 515.778 18.5861 517.254 21.0721C518.731 23.5582 519.518 26.8393 519.452 30.2347Z" fill="black"/>
<path opacity="0.1" d="M532.606 98.919L527.863 146.208L511.11 179.225L532.606 98.919Z" fill="black"/>
<path d="M31.145 244.463H27.0379V247.886H31.145V244.463Z" fill="#F0F0F0"/>
<path d="M419.623 247.886H411.53V244.463H419.623V247.886ZM403.437 247.886H395.343V244.463H403.437V247.886ZM387.25 247.886H379.157V244.463H387.25V247.886ZM371.064 247.886H362.97V244.463H371.064V247.886ZM354.877 247.886H346.784V244.463H354.877V247.886ZM338.69 247.886H330.597V244.463H338.69L338.69 247.886ZM322.504 247.886H314.411V244.463H322.504V247.886ZM306.317 247.886H298.224V244.463H306.317V247.886ZM290.131 247.886H282.038V244.463H290.131V247.886ZM273.944 247.886H265.851V244.463H273.944L273.944 247.886ZM257.758 247.886H249.664V244.463H257.758L257.758 247.886ZM241.571 247.886H233.478V244.463H241.571L241.571 247.886ZM225.384 247.886H217.291V244.463H225.385L225.384 247.886ZM209.198 247.886H201.105V244.463H209.198L209.198 247.886ZM193.011 247.886H184.918V244.463H193.011L193.011 247.886ZM176.824 247.886H168.731V244.463H176.825L176.824 247.886ZM160.638 247.886H152.545V244.463H160.638L160.638 247.886ZM144.451 247.886H136.358V244.463H144.452L144.451 247.886ZM128.265 247.886H120.172V244.463H128.265L128.265 247.886ZM112.078 247.886H103.985V244.463H112.078L112.078 247.886ZM95.8914 247.886H87.7985V244.463H95.8916L95.8914 247.886ZM79.7049 247.886H71.6117V244.463H79.7051L79.7049 247.886ZM63.5183 247.886H55.4251V244.463H63.5186L63.5183 247.886ZM47.3318 247.886H39.2386V244.463H47.332L47.3318 247.886Z" fill="#F8F8F8"/>
<path d="M31.145 157.53H27.0379V160.953H31.145V157.53Z" fill="#F0F0F0"/>
<path d="M419.385 161.274H411.292V157.852H419.385V161.274ZM403.199 161.274H395.105V157.852H403.199V161.274ZM387.012 161.274H378.919V157.852H387.012V161.274ZM370.826 161.274H362.732V157.852H370.826V161.274ZM354.639 161.274H346.546V157.852H354.639V161.274ZM338.452 161.274H330.359V157.852H338.452L338.452 161.274ZM322.266 161.274H314.172V157.852H322.266V161.274ZM306.079 161.274H297.986V157.852H306.079V161.274ZM289.892 161.274H281.799V157.852H289.892V161.274ZM273.706 161.274H265.612V157.852H273.706L273.706 161.274ZM257.519 161.274H249.426V157.852H257.519L257.519 161.274ZM241.332 161.274H233.239V157.852H241.333L241.332 161.274ZM225.146 161.274H217.053V157.852H225.146L225.146 161.274ZM208.959 161.274H200.866V157.852H208.959L208.959 161.274ZM192.773 161.274H184.68V157.852H192.773L192.773 161.274ZM176.586 161.274H168.493V157.852H176.586L176.586 161.274ZM160.399 161.274H152.306V157.852H160.4L160.399 161.274ZM144.213 161.274H136.12V157.852H144.213L144.213 161.274ZM128.026 161.274H119.933V157.852H128.026L128.026 161.274ZM111.839 161.274H103.747V157.852H111.84L111.839 161.274ZM95.6529 161.274H87.56V157.852H95.6531L95.6529 161.274ZM79.4663 161.274H71.3731V157.852H79.4666L79.4663 161.274ZM63.2798 161.274H55.1866V157.852H63.28L63.2798 161.274ZM47.0932 161.274H39V157.852H47.0935L47.0932 161.274Z" fill="#F8F8F8"/>
<path d="M419.385 69.0979H411.292V65.6753H419.385V69.0979ZM403.199 69.0979H395.105V65.6753H403.199V69.0979ZM387.012 69.0979H378.919V65.6753H387.012V69.0979ZM370.826 69.0979H362.732V65.6753H370.826V69.0979ZM354.639 69.0979H346.546V65.6753H354.639V69.0979ZM338.452 69.0979H330.359V65.6753H338.452L338.452 69.0979ZM322.266 69.0979H314.172V65.6753H322.266V69.0979ZM306.079 69.0979H297.986V65.6753H306.079V69.0979ZM289.892 69.0979H281.799V65.6753H289.892V69.0979ZM273.706 69.0979H265.612V65.6753H273.706L273.706 69.0979ZM257.519 69.0979H249.426V65.6753H257.519L257.519 69.0979ZM241.332 69.0979H233.239V65.6753H241.333L241.332 69.0979ZM225.146 69.0979H217.053V65.6753H225.146L225.146 69.0979ZM208.959 69.0979H200.866V65.6753H208.959L208.959 69.0979ZM192.773 69.0979H184.68V65.6753H192.773L192.773 69.0979ZM176.586 69.0979H168.493V65.6753H176.586L176.586 69.0979ZM160.399 69.0979H152.306V65.6753H160.4L160.399 69.0979ZM144.213 69.0979H136.12V65.6753H144.213L144.213 69.0979ZM128.026 69.0979H119.933V65.6753H128.026L128.026 69.0979ZM111.839 69.0979H103.747V65.6753H111.84L111.839 69.0979ZM95.6529 69.0979H87.56V65.6753H95.6531L95.6529 69.0979ZM79.4663 69.0979H71.3731V65.6753H79.4666L79.4663 69.0979ZM63.2798 69.0979H55.1866V65.6753H63.28L63.2798 69.0979ZM47.0932 69.0979H39V65.6753H47.0935L47.0932 69.0979Z" fill="#F8F8F8"/>
<path d="M160.859 245.49H127.318V368.701H160.859V245.49Z" fill="#3F3D56"/>
<path d="M167.02 245.49H133.479V368.701H167.02V245.49Z" fill="#47A138"/>
<path d="M240.262 158.557H206.721V368.701H240.262V158.557Z" fill="#3F3D56"/>
<path d="M246.422 158.557H212.882V368.701H246.422V158.557Z" fill="#47A138"/>
<path d="M319.665 71.625H286.124V368.701H319.665V71.625Z" fill="#3F3D56"/>
<path d="M325.825 71.625H292.285V368.701H325.825V71.625Z" fill="#47A138"/>
<path d="M27.3804 167.456C31.9169 167.456 35.5945 163.778 35.5945 159.242C35.5945 154.705 31.9169 151.028 27.3804 151.028C22.8439 151.028 19.1663 154.705 19.1663 159.242C19.1663 163.778 22.8439 167.456 27.3804 167.456Z" fill="#F8F8F8"/>
<path d="M27.3804 75.2798C31.9169 75.2798 35.5945 71.6022 35.5945 67.0657C35.5945 62.5292 31.9169 58.8516 27.3804 58.8516C22.8439 58.8516 19.1663 62.5292 19.1663 67.0657C19.1663 71.6022 22.8439 75.2798 27.3804 75.2798Z" fill="#F8F8F8"/>
<path d="M27.3803 254.389C31.9168 254.389 35.5944 250.711 35.5944 246.174C35.5944 241.638 31.9168 237.96 27.3803 237.96C22.8438 237.96 19.1662 241.638 19.1662 246.174C19.1662 250.711 22.8438 254.389 27.3803 254.389Z" fill="#F8F8F8"/>
<path d="M607.843 367.934H0V369.468H607.843V367.934Z" fill="#47A138"/>
<path d="M512.858 211.826L512.802 211.821C502.42 210.107 490.887 210.107 477.544 211.823H477.539C477.206 211.827 476.876 211.765 476.567 211.641C476.258 211.516 475.977 211.332 475.74 211.099C475.502 210.865 475.313 210.587 475.184 210.28C475.055 209.974 474.988 209.644 474.986 209.311V197.228C474.987 196.561 475.252 195.922 475.723 195.45C476.195 194.979 476.834 194.714 477.501 194.713C489.251 193.181 501.15 193.182 512.9 194.716H512.904C513.563 194.726 514.192 194.995 514.654 195.465C515.116 195.935 515.374 196.568 515.372 197.228V209.311C515.371 209.978 515.106 210.617 514.635 211.088C514.163 211.56 513.524 211.825 512.858 211.826Z" fill="white"/>
<path d="M512.858 211.826L512.802 211.821C502.42 210.107 490.887 210.107 477.544 211.823H477.539C477.206 211.827 476.876 211.765 476.567 211.641C476.258 211.516 475.977 211.332 475.74 211.099C475.502 210.865 475.313 210.587 475.184 210.28C475.055 209.974 474.988 209.644 474.986 209.311V197.228C474.987 196.561 475.252 195.922 475.723 195.45C476.195 194.979 476.834 194.714 477.501 194.713C489.251 193.181 501.15 193.182 512.9 194.716H512.904C513.563 194.726 514.192 194.995 514.654 195.465C515.116 195.935 515.374 196.568 515.372 197.228V209.311C515.371 209.978 515.106 210.617 514.635 211.088C514.163 211.56 513.524 211.825 512.858 211.826ZM494.73 194.251C488.983 194.241 483.242 194.623 477.547 195.394C477.303 195.39 477.061 195.435 476.835 195.525C476.608 195.615 476.401 195.75 476.227 195.92C476.053 196.09 475.914 196.294 475.818 196.518C475.723 196.743 475.672 196.984 475.671 197.228V209.311C475.671 209.797 475.864 210.262 476.207 210.605C476.55 210.948 477.015 211.141 477.501 211.141C490.855 209.421 502.444 209.421 512.885 211.141C513.365 211.133 513.823 210.937 514.16 210.595C514.498 210.253 514.687 209.792 514.688 209.311V197.228C514.687 196.742 514.494 196.277 514.151 195.934C513.808 195.591 513.343 195.398 512.858 195.398C506.844 194.643 500.79 194.26 494.73 194.251Z" fill="#47A138"/>
<path d="M495.179 207.484C497.825 207.484 499.971 205.339 499.971 202.692C499.971 200.046 497.825 197.901 495.179 197.901C492.533 197.901 490.388 200.046 490.388 202.692C490.388 205.339 492.533 207.484 495.179 207.484Z" fill="#47A138"/>
<path d="M482.858 200.189H478.751C478.479 200.189 478.218 200.081 478.025 199.888C477.833 199.696 477.724 199.435 477.724 199.163V197.793C477.724 197.521 477.833 197.26 478.025 197.068C478.218 196.875 478.479 196.767 478.751 196.767H482.858C483.13 196.767 483.391 196.875 483.584 197.068C483.776 197.26 483.884 197.521 483.885 197.793V199.163C483.884 199.435 483.776 199.696 483.584 199.888C483.391 200.081 483.13 200.189 482.858 200.189Z" fill="#47A138"/>
<path d="M511.607 209.772H507.5C507.228 209.772 506.967 209.664 506.774 209.471C506.582 209.279 506.474 209.018 506.473 208.746V207.377C506.474 207.104 506.582 206.843 506.774 206.651C506.967 206.458 507.228 206.35 507.5 206.35H511.607C511.879 206.35 512.14 206.458 512.333 206.651C512.525 206.843 512.634 207.104 512.634 207.377V208.746C512.634 209.018 512.525 209.279 512.333 209.471C512.14 209.664 511.879 209.772 511.607 209.772Z" fill="#47A138"/>
<path d="M529.225 177.399L518.451 196.49L518.409 196.565L518.393 196.65C518.123 198.198 517.294 199.594 516.064 200.572C514.834 201.55 513.288 202.043 511.718 201.958C510.149 201.872 508.665 201.213 507.548 200.107C506.432 199.001 505.761 197.523 505.661 195.955V195.951C505.596 195.02 505.735 194.086 506.07 193.215C506.405 192.344 506.926 191.557 507.598 190.909C508.27 190.261 509.075 189.769 509.958 189.466C510.84 189.164 511.779 189.059 512.707 189.158L513.061 189.195L513.212 188.874L523.247 167.588L529.225 177.399Z" stroke="black"/>
<path d="M533.52 80.2513L537.816 74.6494C537.816 74.6494 548.282 72.5177 550.06 86.8933L548.94 150.803L526.005 186.901L511.11 183.098L530.585 140.215L533.52 80.2513Z" fill="#CBCBCB"/>
<path d="M505.071 44.76C505.381 44.6241 505.664 44.4066 505.901 44.1221C506.058 43.9193 506.178 43.6759 506.252 43.409C506.326 43.1421 506.353 42.8582 506.33 42.577C506.317 42.3766 506.267 42.1828 506.184 42.0106C506.101 41.8384 505.988 41.6926 505.852 41.5846C505.501 41.314 505.037 41.3243 504.569 41.5963L504.515 36.8516L504.134 36.8583L504.198 42.4363L504.487 42.1983C504.823 41.9228 505.306 41.7231 505.653 41.9906C505.739 42.0614 505.81 42.1561 505.862 42.2673C505.914 42.3785 505.945 42.5031 505.952 42.6316C505.968 42.8411 505.948 43.0524 505.893 43.2512C505.838 43.45 505.749 43.6316 505.633 43.7836C505.221 44.2963 504.61 44.4681 503.914 44.6252L503.981 45.0943C504.352 45.0239 504.716 44.912 505.071 44.76Z" fill="black"/>
<path d="M511.67 37.9122L508.038 38.4624L508.14 39.1368L511.772 38.5867L511.67 37.9122Z" fill="black"/>
<path d="M493.102 37.9122L496.735 38.4624L496.633 39.1368L493 38.5867L493.102 37.9122Z" fill="black"/>
</svg>
