<svg width="334" height="267" viewBox="0 0 334 267" fill="none" xmlns="http://www.w3.org/2000/svg">
<path d="M23.9897 208.617C24.4008 208.704 24.964 208.828 25.6577 208.989C27.1668 209.339 29.2941 209.87 31.8247 210.602L32.9458 215.11L33.9302 215.023L34.1802 211.307C38.1697 212.536 42.0933 213.977 45.9341 215.627L48.1997 224.738L49.1841 224.65L49.6763 217.342C55.2437 220.045 60.7442 223.43 65.146 227.596C72.5757 234.627 78.159 242.215 81.189 248.783C82.7045 252.069 83.5706 255.076 83.7241 257.616C83.8776 260.156 83.3185 262.181 82.0435 263.582C80.7698 264.981 78.8357 265.699 76.3472 265.732C73.8559 265.764 70.8537 265.108 67.5288 263.812C61.0895 261.301 53.5339 256.426 46.313 249.731L45.6157 249.076C44.3688 247.888 43.1855 246.632 42.0708 245.315L50.481 244.078L50.4956 243.092L38.7397 240.986C33.7015 233.82 29.969 225.572 27.4897 219.086C26.2414 215.82 25.3122 213.007 24.6958 211.01C24.3876 210.012 24.1581 209.217 24.0054 208.674C24 208.655 23.9949 208.636 23.9897 208.617Z" stroke="#47A138"/>
<path d="M57.4019 188.264C57.7121 188.55 58.136 188.946 58.6538 189.443C59.7753 190.52 61.3376 192.069 63.145 193.996L61.813 198.368L62.6997 198.802L64.8091 195.807C67.6212 198.911 70.2683 202.159 72.7368 205.541L70.0425 214.379L70.9292 214.812L75.0806 208.919C78.5007 214.082 81.5165 219.786 83.1841 225.577C85.9975 235.347 86.9356 244.629 86.1948 251.727C85.8243 255.277 85.036 258.255 83.8735 260.471C82.7119 262.684 81.1999 264.097 79.3882 264.615C77.5763 265.133 75.5419 264.734 73.3784 263.47C71.2134 262.205 68.9599 260.096 66.7563 257.281C62.3511 251.654 58.2076 243.289 55.394 233.519H55.395C54.9285 231.878 54.5512 230.214 54.2632 228.533L62.1333 231.848L62.6548 231.01L53.5991 223.143C52.9151 214.5 53.9075 205.624 55.0806 198.879C55.6712 195.483 56.3059 192.633 56.7935 190.633C57.0372 189.633 57.2446 188.845 57.3901 188.309C57.3942 188.293 57.3978 188.278 57.4019 188.264Z" stroke="#47A138"/>
<path d="M208.849 63.2663H207.387V23.1938C207.387 20.1479 206.788 17.1319 205.623 14.3179C204.458 11.5039 202.751 8.94705 200.598 6.79331C198.446 4.63956 195.891 2.93112 193.078 1.76552C190.266 0.599924 187.252 0 184.208 0H99.3602C93.2128 0 87.3171 2.44363 82.9701 6.79331C78.6232 11.143 76.1812 17.0424 76.1812 23.1938V243.039C76.1812 246.084 76.7807 249.1 77.9455 251.914C79.1104 254.728 80.8178 257.285 82.9701 259.439C85.1225 261.593 87.6778 263.301 90.49 264.467C93.3022 265.632 96.3163 266.232 99.3602 266.232H184.208C190.356 266.232 196.251 263.789 200.598 259.439C204.945 255.089 207.387 249.19 207.387 243.039V91.7907H208.849L208.849 63.2663Z" fill="#E6E6E6"/>
<path d="M185.23 6.2749H174.133C174.643 7.52209 174.838 8.87525 174.7 10.2152C174.562 11.5551 174.095 12.8406 173.342 13.9585C172.588 15.0764 171.57 15.9924 170.377 16.6257C169.184 17.259 167.854 17.5902 166.502 17.5901H117.796C116.444 17.5901 115.114 17.2588 113.921 16.6254C112.729 15.9921 111.711 15.0761 110.957 13.9582C110.203 12.8403 109.737 11.5548 109.599 10.215C109.461 8.87513 109.656 7.52204 110.166 6.2749H99.8009C95.2007 6.2749 90.789 8.0963 87.5362 11.3384C84.2835 14.5805 82.4561 18.9778 82.4561 23.5628V242.67C82.4561 247.255 84.2835 251.652 87.5362 254.894C90.789 258.136 95.2007 259.958 99.8009 259.958H185.23C189.83 259.958 194.241 258.136 197.494 254.894C200.747 251.652 202.574 247.255 202.574 242.67V23.5624C202.574 18.9775 200.747 14.5803 197.494 11.3383C194.241 8.09625 189.83 6.2749 185.23 6.2749Z" fill="white"/>
<path d="M131.16 93.2268C131.159 91.653 131.546 90.107 132.281 88.7442C133.015 87.3814 134.072 86.25 135.344 85.4638C134.072 84.6768 132.63 84.2624 131.161 84.2622C129.693 84.262 128.25 84.6761 126.978 85.4628C125.706 86.2495 124.65 87.3812 123.915 88.7439C123.181 90.1067 122.794 91.6526 122.794 93.2263C122.794 94.7999 123.181 96.3458 123.915 97.7086C124.65 99.0714 125.706 100.203 126.978 100.99C128.25 101.776 129.693 102.19 131.161 102.19C132.63 102.19 134.072 101.776 135.344 100.989C134.072 100.203 133.015 99.0715 132.281 97.7089C131.546 96.3463 131.159 94.8004 131.16 93.2268Z" fill="#CCCCCC"/>
<path d="M142.514 93.2268C142.514 91.653 142.928 90.1069 143.715 88.7441C144.502 87.3813 145.634 86.2499 146.997 85.4638C145.635 84.6768 144.089 84.2624 142.516 84.2622C140.942 84.262 139.396 84.6761 138.034 85.4628C136.671 86.2495 135.539 87.3812 134.752 88.7439C133.965 90.1067 133.551 91.6526 133.551 93.2263C133.551 94.7999 133.965 96.3458 134.752 97.7086C135.539 99.0714 136.671 100.203 138.034 100.99C139.396 101.776 140.942 102.19 142.516 102.19C144.089 102.19 145.635 101.776 146.997 100.989C145.634 100.203 144.502 99.0715 143.715 97.7089C142.928 96.3463 142.514 94.8004 142.514 93.2268Z" fill="#CCCCCC"/>
<path d="M153.272 102.19C158.223 102.19 162.236 98.177 162.236 93.2263C162.236 88.2755 158.223 84.2622 153.272 84.2622C148.321 84.2622 144.308 88.2755 144.308 93.2263C144.308 98.177 148.321 102.19 153.272 102.19Z" fill="#47A138"/>
<path d="M167.575 121.015H116.559C116.073 121.014 115.607 120.821 115.264 120.478C114.92 120.134 114.727 119.668 114.727 119.183V68.1659C114.727 67.6802 114.92 67.2146 115.264 66.8712C115.607 66.5277 116.073 66.3346 116.559 66.334H167.575C168.061 66.3346 168.527 66.5277 168.87 66.8712C169.214 67.2146 169.407 67.6802 169.407 68.1659V119.183C169.407 119.668 169.214 120.134 168.87 120.478C168.527 120.821 168.061 121.014 167.575 121.015ZM116.559 67.0672C116.267 67.0675 115.988 67.1834 115.782 67.3894C115.576 67.5955 115.46 67.8749 115.459 68.1663V119.183C115.46 119.475 115.576 119.754 115.782 119.96C115.988 120.166 116.267 120.282 116.559 120.282H167.575C167.867 120.282 168.146 120.166 168.352 119.96C168.558 119.754 168.674 119.475 168.674 119.183V68.1663C168.674 67.8749 168.558 67.5955 168.352 67.3894C168.146 67.1834 167.867 67.0675 167.575 67.0672H116.559Z" fill="#CCCCCC"/>
<path d="M190.718 157.179H95.6992V158.075H190.718V157.179Z" fill="#004D61"/>
<path d="M190.718 184.967H95.6992V185.864H190.718V184.967Z" fill="#004D61"/>
<path d="M98.6076 151.576C100.363 151.576 101.787 150.152 101.787 148.397C101.787 146.641 100.363 145.218 98.6076 145.218C96.852 145.218 95.4287 146.641 95.4287 148.397C95.4287 150.152 96.852 151.576 98.6076 151.576Z" fill="#47A138"/>
<path d="M98.6076 178.75C100.363 178.75 101.787 177.327 101.787 175.571C101.787 173.815 100.363 172.392 98.6076 172.392C96.852 172.392 95.4287 173.815 95.4287 175.571C95.4287 177.327 96.852 178.75 98.6076 178.75Z" fill="#47A138"/>
<path d="M188.476 218.779H156.664C156.114 218.778 155.588 218.56 155.199 218.171C154.81 217.783 154.592 217.256 154.591 216.706V205.557C154.592 205.007 154.81 204.48 155.199 204.092C155.588 203.703 156.114 203.484 156.664 203.484H188.476C189.025 203.484 189.552 203.703 189.941 204.092C190.329 204.48 190.548 205.007 190.548 205.557V216.706C190.548 217.256 190.329 217.783 189.941 218.171C189.552 218.56 189.025 218.778 188.476 218.779Z" fill="#47A138"/>
<path d="M108.977 151.576C110.732 151.576 112.156 150.152 112.156 148.397C112.156 146.641 110.732 145.218 108.977 145.218C107.221 145.218 105.798 146.641 105.798 148.397C105.798 150.152 107.221 151.576 108.977 151.576Z" fill="#47A138"/>
<path d="M108.977 178.75C110.732 178.75 112.156 177.327 112.156 175.571C112.156 173.815 110.732 172.392 108.977 172.392C107.221 172.392 105.798 173.815 105.798 175.571C105.798 177.327 107.221 178.75 108.977 178.75Z" fill="#47A138"/>
<path d="M119.346 151.576C121.102 151.576 122.525 150.152 122.525 148.397C122.525 146.641 121.102 145.218 119.346 145.218C117.59 145.218 116.167 146.641 116.167 148.397C116.167 150.152 117.59 151.576 119.346 151.576Z" fill="#47A138"/>
<path d="M119.346 178.75C121.102 178.75 122.525 177.327 122.525 175.571C122.525 173.815 121.102 172.392 119.346 172.392C117.59 172.392 116.167 173.815 116.167 175.571C116.167 177.327 117.59 178.75 119.346 178.75Z" fill="#47A138"/>
<path d="M331.973 267H1.28135C0.573431 267 0 266.749 0 266.439C0 266.13 0.573431 265.878 1.28135 265.878H331.973C332.681 265.878 333.255 266.129 333.255 266.439C333.255 266.749 332.681 267 331.973 267Z" fill="#3F3D56"/>
<path d="M248.482 103.46L211.936 113.102L211.667 113.173L211.585 113.44C211.515 113.673 211.43 113.901 211.332 114.124C210.84 115.17 210.05 116.049 209.059 116.648C208.068 117.248 206.922 117.543 205.764 117.495C204.606 117.447 203.488 117.059 202.55 116.38C201.613 115.7 200.898 114.76 200.495 113.677C200.091 112.594 200.019 111.416 200.285 110.291C200.55 109.167 201.143 108.145 201.989 107.355C202.835 106.566 203.896 106.042 205.04 105.852C206.181 105.662 207.354 105.811 208.411 106.283V106.284C208.692 106.413 208.963 106.563 209.22 106.734L209.445 106.885L209.694 106.778L237.654 94.875L237.915 94.7637L237.953 94.4824L238.892 87.5654L249.107 87.5029L248.482 103.46Z" stroke="black"/>
<path d="M253.126 230.5V259.5H246.618L243.189 230.5H253.126Z" stroke="black"/>
<path d="M240.9 257H255.627V267H231.627C231.627 264.348 232.604 261.804 234.343 259.929C236.082 258.054 238.441 257 240.9 257Z" fill="#2F2E41"/>
<path d="M283.081 256.804L276.474 257.458L270.238 229.544L280.313 228.547L283.081 256.804Z" stroke="black"/>
<path d="M270.581 256.485L285.337 255.032L286.252 264.322L262.206 266.691C262.086 265.471 262.207 264.239 262.563 263.066C262.919 261.892 263.502 260.801 264.28 259.853C265.058 258.906 266.015 258.12 267.096 257.542C268.177 256.965 269.361 256.605 270.581 256.485Z" fill="#2F2E41"/>
<path d="M256.127 55C264.688 55 271.627 48.0604 271.627 39.5C271.627 30.9396 264.688 24 256.127 24C247.567 24 240.627 30.9396 240.627 39.5C240.627 48.0604 247.567 55 256.127 55Z" fill="#FF5031"/>
<path d="M244.581 254C243.925 254.002 243.288 253.769 242.785 253.342C242.282 252.916 241.943 252.323 241.83 251.668C237.874 229.455 224.946 156.821 224.637 154.809C224.63 154.763 224.627 154.716 224.627 154.669V149.253C224.627 149.056 224.688 148.864 224.802 148.703L226.509 146.283C226.591 146.167 226.697 146.071 226.821 146.002C226.944 145.934 227.082 145.895 227.222 145.889C236.959 145.427 268.847 144.074 270.387 146.021C271.935 147.978 271.388 153.908 271.263 155.077L271.269 155.199L285.595 247.896C285.707 248.635 285.527 249.389 285.094 249.995C284.66 250.601 284.009 251.01 283.28 251.134L274.332 252.625C273.665 252.734 272.982 252.596 272.408 252.239C271.833 251.881 271.404 251.326 271.199 250.675C268.432 241.728 259.152 211.629 255.936 199.982C255.916 199.908 255.87 199.845 255.807 199.803C255.743 199.761 255.667 199.743 255.592 199.754C255.517 199.765 255.449 199.803 255.4 199.861C255.351 199.919 255.324 199.993 255.325 200.07C255.486 211.172 255.874 239.498 256.008 249.281L256.022 250.335C256.028 251.048 255.77 251.738 255.297 252.267C254.825 252.797 254.173 253.128 253.471 253.195L244.843 253.988C244.755 253.996 244.668 254 244.581 254Z" fill="#2F2E41"/>
<path d="M246.309 61.4321C243.577 63.0291 241.943 65.9639 241.005 68.9503C239.268 74.4791 238.222 80.1955 237.891 85.973L236.9 103.272L224.627 149.133C235.264 157.983 241.4 155.972 255.719 148.733C270.037 141.493 271.673 151.146 271.673 151.146L274.537 112.125L278.627 69.4838C277.709 68.3964 276.67 67.4137 275.529 66.5542C271.748 63.6627 267.348 61.653 262.662 60.6764C257.977 59.6997 253.126 59.7817 248.478 60.9161L246.309 61.4321Z" fill="#47A138"/>
<path d="M283.114 110.049L246.419 122.375L246.154 122.464L246.091 122.737C245.811 123.958 245.172 125.062 244.26 125.902C243.349 126.743 242.208 127.281 240.99 127.446C239.771 127.611 238.532 127.396 237.436 126.828C236.34 126.26 235.44 125.366 234.855 124.264C234.27 123.161 234.029 121.903 234.165 120.657C234.3 119.412 234.805 118.238 235.613 117.293C236.42 116.348 237.491 115.676 238.682 115.365C239.872 115.055 241.126 115.118 242.279 115.549V115.55C242.578 115.664 242.867 115.802 243.145 115.963L243.379 116.099L243.622 115.976L271.345 101.882L271.6 101.752L271.618 101.466L272.05 94.2686L282.533 93.5342L283.114 110.049Z" stroke="black"/>
<path d="M277.847 69.8247C284.462 72.2227 285.627 98.2022 285.627 98.2022C277.845 93.8059 268.507 101 268.507 101C268.507 101 266.561 94.2057 264.227 85.4131C263.522 82.9399 263.437 80.3238 263.982 77.8081C264.526 75.2925 265.681 72.9592 267.339 71.0254C267.339 71.0254 271.233 67.4252 277.847 69.8247Z" fill="#47A138"/>
<path d="M255.28 18.8311C259.532 17.7316 262.771 19.5494 264.988 21.7002C266.097 22.7762 266.938 23.9255 267.502 24.8086C267.784 25.2493 267.995 25.6222 268.135 25.8828C268.205 26.0129 268.258 26.1149 268.292 26.1836C268.31 26.2178 268.322 26.2438 268.331 26.2607C268.335 26.2691 268.338 26.2755 268.339 26.2793C268.34 26.2811 268.341 26.2825 268.341 26.2832V26.2842L268.416 26.4434L268.573 26.5205C269.956 27.206 270.889 28.641 271.454 30.499C272.016 32.35 272.189 34.547 272.109 36.624C272.028 38.7009 271.696 40.6193 271.275 41.9072C271.061 42.562 270.84 43.0028 270.652 43.2266C270.612 43.2738 270.581 43.3019 270.559 43.3193C269.342 42.3833 267.95 42.8231 267.005 43.3525C266.648 43.5529 266.327 43.7787 266.066 43.9844L264.615 31.0381L264.559 30.5381L264.059 30.5977H264.058C264.057 30.5978 264.055 30.5984 264.053 30.5986C264.049 30.5991 264.042 30.5996 264.033 30.6006C264.015 30.6027 263.987 30.6054 263.952 30.6094C263.88 30.6173 263.774 30.6294 263.636 30.6436C263.36 30.6719 262.958 30.7101 262.457 30.752C261.452 30.8357 260.048 30.9316 258.452 30.9795C255.246 31.0755 251.308 30.9769 248.259 30.2227C246.604 29.8132 245.255 29.9721 244.17 30.4795C243.093 30.9834 242.322 31.8096 241.776 32.6602C241.555 33.0045 241.369 33.3561 241.212 33.6973C241.095 31.689 241.1 29.6749 241.233 27.666C241.406 26.152 242.617 24.528 245.003 22.9668C247.378 21.4136 250.829 19.982 255.28 18.8311Z" stroke="black"/>
<path d="M251.15 40.7972C251.022 40.7148 250.906 40.5828 250.808 40.4103C250.743 40.2873 250.693 40.1396 250.663 39.9777C250.632 39.8158 250.621 39.6436 250.631 39.473C250.636 39.3515 250.657 39.2339 250.691 39.1294C250.725 39.025 250.772 38.9366 250.828 38.871C250.973 38.7069 251.164 38.7131 251.357 38.8781L251.38 36L251.536 36.0041L251.51 39.3877L251.391 39.2433C251.252 39.0762 251.053 38.955 250.91 39.1173C250.875 39.1603 250.845 39.2177 250.824 39.2851C250.802 39.3526 250.79 39.4282 250.787 39.5061C250.78 39.6332 250.788 39.7614 250.811 39.882C250.834 40.0026 250.87 40.1127 250.918 40.205C251.088 40.516 251.34 40.6202 251.627 40.7155L251.6 41C251.447 40.9573 251.296 40.8894 251.15 40.7972Z" fill="black"/>
<path d="M247.191 36.9604L249.469 37.3054L249.405 37.7283L247.127 37.3833L247.191 36.9604Z" fill="black"/>
<path d="M258.834 36.9604L256.556 37.3054L256.62 37.7283L258.898 37.3833L258.834 36.9604Z" fill="black"/>
</svg>
