<svg width="19" height="13" viewBox="0 0 19 13" fill="none" xmlns="http://www.w3.org/2000/svg">
<path d="M7.42188 4.49219C7.91667 3.9974 8.5026 3.75 9.17969 3.75C9.85677 3.75 10.4427 3.9974 10.9375 4.49219C11.4323 4.98698 11.6797 5.57292 11.6797 6.25C11.6797 6.92708 11.4323 7.51302 10.9375 8.00781C10.4427 8.5026 9.85677 8.75 9.17969 8.75C8.5026 8.75 7.91667 8.5026 7.42188 8.00781C6.92708 7.51302 6.67969 6.92708 6.67969 6.25C6.67969 5.57292 6.92708 4.98698 7.42188 4.49219ZM6.21094 9.21875C7.04427 10.026 8.03385 10.4297 9.17969 10.4297C10.3255 10.4297 11.3021 10.026 12.1094 9.21875C12.9427 8.38542 13.3594 7.39583 13.3594 6.25C13.3594 5.10417 12.9427 4.1276 12.1094 3.32031C11.3021 2.48698 10.3255 2.07031 9.17969 2.07031C8.03385 2.07031 7.04427 2.48698 6.21094 3.32031C5.40365 4.1276 5 5.10417 5 6.25C5 7.39583 5.40365 8.38542 6.21094 9.21875ZM3.59375 1.71875C5.26042 0.572917 7.1224 0 9.17969 0C11.237 0 13.099 0.572917 14.7656 1.71875C16.4323 2.86458 17.6302 4.375 18.3594 6.25C17.6302 8.125 16.4323 9.63542 14.7656 10.7812C13.099 11.9271 11.237 12.5 9.17969 12.5C7.1224 12.5 5.26042 11.9271 3.59375 10.7812C1.92708 9.63542 0.729167 8.125 0 6.25C0.729167 4.375 1.92708 2.86458 3.59375 1.71875Z" fill="#FF5031"/>
</svg>
