<svg width="328" height="231" viewBox="0 0 328 231" fill="none" xmlns="http://www.w3.org/2000/svg">
<path d="M301.765 230.482L302.751 230.463C302.37 219.496 301.2 208.571 299.25 197.771C294.985 174.65 287.892 159.466 278.17 152.639L277.603 153.446C300.315 169.393 301.754 229.873 301.765 230.482Z" fill="#2F2E41"/>
<path d="M289.435 230.246L290.422 230.227C290.401 229.135 289.784 203.391 279.649 196.275L279.083 197.082C288.809 203.911 289.431 229.984 289.435 230.246Z" fill="#2F2E41"/>
<path d="M271.992 153.536C274.715 153.536 276.924 151.327 276.924 148.604C276.924 145.88 274.715 143.672 271.992 143.672C269.268 143.672 267.06 145.88 267.06 148.604C267.06 151.327 269.268 153.536 271.992 153.536Z" fill="#004D61"/>
<path d="M274.434 195.95C277.158 195.95 279.366 193.742 279.366 191.018C279.366 188.294 277.158 186.086 274.434 186.086C271.71 186.086 269.502 188.294 269.502 191.018C269.502 193.742 271.71 195.95 274.434 195.95Z" fill="#004D61"/>
<path d="M291.734 156.492C290.807 162.412 293.223 167.707 293.223 167.707C293.223 167.707 297.142 163.404 298.069 157.484C298.995 151.563 296.58 146.268 296.58 146.268C296.58 146.268 292.661 150.572 291.734 156.492Z" fill="#2F2E41"/>
<path d="M275.613 170.87C281.281 172.814 286.916 171.358 286.916 171.358C286.916 171.358 283.362 166.75 277.693 164.806C272.025 162.861 266.39 164.318 266.39 164.318C266.39 164.318 269.945 168.926 275.613 170.87Z" fill="#2F2E41"/>
<path d="M275.431 208.432C277.997 209.238 280.729 209.356 283.354 208.774C281.687 206.652 279.442 205.057 276.889 204.181C274.337 203.306 271.585 203.187 268.967 203.839C270.682 205.91 272.911 207.493 275.431 208.432Z" fill="#2F2E41"/>
<path d="M104.365 40.7273C105.506 40.4649 107.543 40.7154 110.842 43.3279C114.167 45.9616 118.493 50.209 122.001 53.8123C123.751 55.6109 125.293 57.244 126.397 58.4275C126.949 59.0192 127.392 59.4987 127.696 59.8298C127.848 59.9953 127.966 60.1237 128.046 60.2107C128.085 60.254 128.115 60.2871 128.135 60.3093C128.146 60.3203 128.153 60.3291 128.158 60.3347L128.166 60.3425L128.226 60.4089L128.305 60.45L160.102 76.9851L160.298 77.0857L160.504 77.0115C161.342 76.7079 162.25 76.6489 163.121 76.8406C163.992 77.0323 164.791 77.4669 165.425 78.0945C166.058 78.7222 166.502 79.5172 166.702 80.3865C166.902 81.2556 166.851 82.1641 166.555 83.0056C166.26 83.8472 165.731 84.588 165.032 85.1414C164.332 85.6946 163.49 86.0378 162.603 86.1316C161.716 86.2253 160.821 86.0655 160.021 85.6707C159.221 85.2758 158.55 84.6624 158.085 83.9011L157.997 83.7576L157.841 83.696L125.036 70.8464L106.746 55.3572L100.161 46.2L102.811 41.7839L102.818 41.7722L102.823 41.7605C102.824 41.761 102.824 41.7614 102.824 41.7615L102.823 41.7625V41.7634C102.824 41.7609 102.827 41.7545 102.833 41.7458C102.844 41.7283 102.862 41.6992 102.889 41.6619C102.943 41.587 103.03 41.4798 103.153 41.363C103.399 41.1303 103.79 40.8597 104.365 40.7273Z" stroke="#DEE9EA"/>
<path d="M69.7668 49.8248C69.9368 49.8203 70.0741 49.8345 70.1653 49.8492C70.2105 49.8565 70.2439 49.864 70.2639 49.8688C70.2718 49.8707 70.278 49.8718 70.2815 49.8727L70.3069 49.8805L75.303 51.1285L77.1223 62.2604L75.1409 86.1471L61.0315 118.428L60.9641 118.583L61.0042 118.748C61.2167 119.617 61.1774 120.529 60.8918 121.378C60.6062 122.226 60.0853 122.977 59.3899 123.541C58.6946 124.104 57.8532 124.459 56.9641 124.563C56.0749 124.667 55.1745 124.517 54.3674 124.13C53.5604 123.742 52.8799 123.133 52.4055 122.374C51.9312 121.614 51.6822 120.736 51.6877 119.84C51.6933 118.945 51.9532 118.07 52.4368 117.317C52.9205 116.564 53.6085 115.963 54.4202 115.586L54.6204 115.492L54.6868 115.282L65.4788 81.1071L65.5051 81.0211L65.5012 80.9323V80.9205C65.5009 80.913 65.5 80.902 65.4993 80.8873C65.4979 80.8573 65.4961 80.8123 65.4934 80.7535C65.4881 80.6358 65.4804 80.4615 65.4709 80.2369C65.452 79.7876 65.4258 79.1355 65.3977 78.3268C65.3415 76.7093 65.2763 74.4644 65.2424 71.9547C65.1746 66.9268 65.231 60.8646 65.72 56.651C66.2051 52.4706 67.4689 50.8522 68.4612 50.2311C68.9614 49.918 69.4288 49.8338 69.7668 49.8248Z" stroke="#DEE9EA"/>
<path d="M131.292 197.536L128.106 223.365H122.093L122.091 197.536H131.292Z" stroke="#DEE9EA"/>
<path d="M119.818 221.594L133.517 221.593H133.517C135.832 221.594 138.053 222.513 139.69 224.15C141.327 225.787 142.247 228.008 142.247 230.323V230.607L119.819 230.607L119.818 221.594Z" fill="#2F2E41"/>
<path d="M55.4255 197.536L52.24 223.365H46.2263L46.2253 197.536H55.4255Z" stroke="#DEE9EA"/>
<path d="M43.9521 221.594L57.6505 221.593H57.651C59.9662 221.594 62.1865 222.513 63.8236 224.15C65.4607 225.787 66.3805 228.008 66.3806 230.323V230.607L43.9526 230.607L43.9521 221.594Z" fill="#2F2E41"/>
<path d="M80.0654 39.2347L68.5284 49.0833L77.9965 79.0457L80.1329 85.7364C80.1329 85.7364 67.088 97.7638 59.0167 131.362C50.9453 164.96 37.7415 209.605 37.7415 209.605L65.6125 217.583L88.2874 141.58L114.958 201.206L118.038 218.842L141.773 211.844L136.174 167.614L108.18 91.0512L111.088 70.7557C111.088 70.7557 115.455 60.6255 107.869 49.9004L105.489 39.8227L96.9654 37.7231L80.0654 39.2347Z" fill="#2F2E41"/>
<path d="M83.6355 0.5C88.2809 0.5 92.7364 2.34522 96.0212 5.62988C99.306 8.91468 101.152 13.3702 101.152 18.0156V31.4609C101.151 31.9698 100.948 32.4575 100.589 32.8174C100.229 33.1774 99.7404 33.3803 99.2312 33.3809H68.0408C67.5316 33.3803 67.0434 33.1774 66.6833 32.8174C66.3684 32.5024 66.1738 32.0897 66.1296 31.6504L66.1199 31.46V18.0156C66.12 13.3702 67.965 8.91468 71.2498 5.62988C74.5346 2.34508 78.9901 0.500094 83.6355 0.5Z" stroke="#DEE9EA"/>
<path d="M98.9281 26.6946C102.427 20.2936 100.075 12.268 93.6737 8.76893C87.2727 5.26983 79.2471 7.62227 75.748 14.0233C72.2489 20.4242 74.6014 28.4499 81.0024 31.949C87.4034 35.4481 95.429 33.0956 98.9281 26.6946Z" fill="#004D61"/>
<path d="M92.9362 26.8664C93.262 26.7404 93.5597 26.5388 93.8092 26.275C93.9743 26.0869 94.1001 25.8612 94.178 25.6137C94.2559 25.3662 94.2839 25.1029 94.26 24.8422C94.2461 24.6564 94.1936 24.4766 94.1064 24.317C94.0193 24.1573 93.9 24.0221 93.7578 23.9219C93.3888 23.6711 92.9012 23.6805 92.4089 23.9328L92.3521 19.5331L91.9523 19.5394L92.0191 24.7117L92.3234 24.4911C92.6763 24.2356 93.1834 24.0504 93.5483 24.2984C93.6385 24.3641 93.7138 24.4519 93.7684 24.555C93.8229 24.6581 93.8552 24.7737 93.8627 24.8928C93.8795 25.0871 93.8583 25.283 93.8005 25.4673C93.7427 25.6517 93.6496 25.8201 93.5276 25.9611C93.0942 26.4365 92.4527 26.5958 91.7205 26.7415L91.7913 27.1765C92.1805 27.1111 92.5637 27.0074 92.9362 26.8664Z" fill="#DEE9EA"/>
<path d="M99.2909 20.3824L95.835 20.9058L95.9321 21.5474L99.388 21.024L99.2909 20.3824Z" fill="#DEE9EA"/>
<path d="M81.6266 20.3824L85.0825 20.9058L84.9854 21.5474L81.5294 21.024L81.6266 20.3824Z" fill="#DEE9EA"/>
<path d="M91.6616 5.34009L92.0034 5.34497C95.5255 5.43623 98.8838 6.87492 101.381 9.37231C103.905 11.8958 105.347 15.2984 105.411 18.8606H87.3062L87.144 16.5862L86.1743 16.4543L85.3149 18.8606H83.1958L82.8413 13.8977L81.8726 13.7649L80.0522 18.8606H75.2251C75.2889 15.2984 76.7309 11.8958 79.2544 9.37231C81.7518 6.87488 85.1103 5.43631 88.6323 5.34497L88.9741 5.34009H91.6616Z" stroke="#DEE9EA"/>
<path d="M202.184 157.399L79.7842 200.674C76.7579 201.74 73.4323 201.562 70.5369 200.18C67.6415 198.797 65.4129 196.322 64.3399 193.298L43.3134 133.827C42.2473 130.801 42.4251 127.475 43.8079 124.58C45.1907 121.684 47.6655 119.456 50.6894 118.383L173.089 75.1073C176.115 74.0412 179.441 74.219 182.336 75.6018C185.232 76.9846 187.46 79.4594 188.533 82.4833L209.56 141.954C210.626 144.981 210.448 148.306 209.065 151.202C207.683 154.097 205.208 156.326 202.184 157.399Z" fill="white"/>
<path d="M209.56 141.954L209.671 142.269C210.692 145.159 210.524 148.337 209.202 151.102C207.881 153.868 205.515 155.996 202.625 157.017L79.613 200.509C76.7235 201.53 73.5466 201.362 70.7811 200.041C68.0156 198.721 65.888 196.355 64.8661 193.466L64.7549 193.151L209.56 141.954Z" fill="#F2F2F2"/>
<path d="M72.1459 132.191C64.0326 137.529 53.6344 133.512 49.9978 127.66L50.5776 127.33C57.4847 123.025 67.7422 125.423 72.1459 132.191Z" fill="#004D61"/>
<path d="M173.816 147.337C171.831 148.039 170.043 148.007 168.501 147.241C165.018 145.511 163.384 140.379 162.07 136.255C161.688 135.056 161.327 133.923 160.96 132.997L160.955 132.982C160.315 131.145 160.426 129.13 161.264 127.374C162.102 125.619 163.599 124.265 165.43 123.606L181.893 117.785C183.877 117.084 185.663 117.116 187.203 117.88C190.685 119.609 192.321 124.739 193.635 128.861C194.019 130.063 194.381 131.198 194.749 132.126C195.392 133.965 195.283 135.983 194.445 137.742C193.608 139.501 192.109 140.858 190.276 141.517L173.816 147.337ZM161.644 132.733C162.02 133.681 162.384 134.824 162.769 136.033C164.041 140.024 165.623 144.992 168.828 146.584C170.203 147.268 171.755 147.288 173.572 146.646L190.031 140.826C191.679 140.234 193.028 139.014 193.783 137.433C194.537 135.852 194.638 134.037 194.063 132.382C193.69 131.445 193.324 130.298 192.936 129.084C191.664 125.094 190.08 120.128 186.876 118.537C185.502 117.855 183.952 117.835 182.138 118.477L165.675 124.297C164.028 124.89 162.681 126.108 161.927 127.687C161.172 129.266 161.071 131.08 161.644 132.733Z" fill="#3F3D56"/>
<path d="M68.7335 134.113C65.8404 135.116 62.7239 135.287 59.7384 134.607C55.3783 133.65 51.4213 131.047 49.4119 127.814L49.2104 127.49L50.1154 126.975C57.1264 122.609 67.6396 124.976 72.1776 131.948L72.3765 132.254L72.0719 132.454C71.0303 133.14 69.9093 133.697 68.7335 134.113ZM50.2422 127.747C52.2088 130.669 55.8682 133.006 59.8957 133.891C63.8107 134.805 67.9284 134.141 71.357 132.041C66.918 125.62 57.0834 123.491 50.4973 127.602L50.2422 127.747Z" fill="#3F3D56"/>
<path d="M73.0336 176.797C72.0058 177.204 70.8866 177.324 69.7961 177.142C68.7056 176.961 67.685 176.487 66.8438 175.77C65.8592 174.909 65.1128 173.809 64.6765 172.577C64.2402 171.344 64.1288 170.02 64.3529 168.731C64.5611 167.623 65.0721 166.594 65.8293 165.758C66.5865 164.922 67.5604 164.312 68.643 163.995L90.5795 156.24C91.6205 155.808 92.7605 155.672 93.8737 155.848C94.987 156.023 96.0302 156.502 96.8885 157.232C97.8725 158.093 98.6183 159.193 99.0541 160.426C99.4898 161.658 99.6007 162.982 99.3762 164.27C98.943 166.534 97.4147 168.202 95.0852 169L73.1483 176.756C73.1101 176.77 73.0718 176.784 73.0336 176.797ZM68.7795 164.724C67.8435 165.013 67.0039 165.552 66.3509 166.282C65.6979 167.012 65.2563 167.906 65.0734 168.869C64.8715 170.029 64.9719 171.223 65.365 172.333C65.758 173.444 66.4305 174.434 67.3175 175.209C68.0779 175.854 69.0019 176.275 69.9871 176.426C70.9722 176.577 71.98 176.453 72.8986 176.066L94.8459 168.307C95.8042 168.03 96.6674 167.494 97.3399 166.757C98.0123 166.021 98.4677 165.112 98.6558 164.133C98.8581 162.972 98.7581 161.779 98.3656 160.669C97.973 159.558 97.301 158.567 96.4144 157.792C95.6528 157.148 94.7285 156.727 93.743 156.575C92.7575 156.423 91.7491 156.545 90.8288 156.929L68.8802 164.689C68.8466 164.701 68.8128 164.712 68.7795 164.724L68.7795 164.724Z" fill="#3F3D56"/>
<path d="M173.963 129.839L167.048 132.284C166.59 132.446 166.086 132.42 165.647 132.21C165.208 132 164.87 131.625 164.708 131.167C164.546 130.708 164.573 130.204 164.782 129.765C164.992 129.326 165.367 128.989 165.826 128.827L172.741 126.382C173.199 126.219 173.704 126.246 174.142 126.456C174.581 126.665 174.919 127.041 175.081 127.499C175.243 127.958 175.216 128.462 175.007 128.901C174.797 129.34 174.422 129.677 173.963 129.839Z" fill="#004D61"/>
<path d="M175.919 135.371L169.004 137.816C168.545 137.978 168.041 137.952 167.603 137.742C167.164 137.533 166.826 137.157 166.664 136.699C166.502 136.24 166.529 135.736 166.738 135.297C166.948 134.858 167.323 134.521 167.782 134.359L174.697 131.914C175.155 131.752 175.659 131.778 176.098 131.988C176.537 132.197 176.875 132.573 177.037 133.031C177.199 133.49 177.172 133.994 176.963 134.433C176.753 134.872 176.378 135.209 175.919 135.371Z" fill="#004D61"/>
<path d="M177.875 140.904L170.96 143.349C170.733 143.429 170.492 143.464 170.252 143.451C170.011 143.438 169.776 143.378 169.559 143.274C169.341 143.171 169.147 143.025 168.986 142.846C168.824 142.667 168.7 142.458 168.62 142.231C168.54 142.004 168.505 141.763 168.518 141.523C168.53 141.282 168.59 141.047 168.694 140.829C168.798 140.612 168.944 140.417 169.123 140.256C169.302 140.095 169.511 139.971 169.738 139.891L176.653 137.446C176.88 137.366 177.12 137.331 177.361 137.344C177.601 137.356 177.837 137.416 178.054 137.52C178.272 137.624 178.466 137.769 178.627 137.948C178.788 138.127 178.913 138.336 178.993 138.563C179.073 138.791 179.108 139.031 179.095 139.272C179.082 139.512 179.022 139.748 178.919 139.965C178.815 140.182 178.669 140.377 178.49 140.538C178.311 140.699 178.102 140.823 177.875 140.904Z" fill="#004D61"/>
<path d="M186.065 125.561L179.15 128.006C178.923 128.086 178.682 128.121 178.442 128.108C178.201 128.095 177.966 128.035 177.748 127.931C177.531 127.828 177.336 127.682 177.175 127.503C177.014 127.324 176.89 127.115 176.81 126.888C176.729 126.661 176.695 126.42 176.707 126.18C176.72 125.939 176.78 125.704 176.884 125.487C176.988 125.269 177.133 125.075 177.312 124.914C177.491 124.752 177.7 124.628 177.927 124.548L184.843 122.103C185.301 121.941 185.805 121.968 186.244 122.177C186.683 122.387 187.02 122.762 187.183 123.221C187.345 123.679 187.318 124.183 187.108 124.622C186.899 125.061 186.523 125.399 186.065 125.561Z" fill="#004D61"/>
<path d="M188.021 131.093L181.106 133.538C180.879 133.618 180.638 133.653 180.398 133.64C180.157 133.627 179.922 133.567 179.704 133.464C179.487 133.36 179.292 133.214 179.131 133.035C178.97 132.856 178.846 132.647 178.766 132.42C178.685 132.193 178.651 131.953 178.663 131.712C178.676 131.472 178.736 131.236 178.84 131.019C178.944 130.801 179.089 130.607 179.268 130.446C179.447 130.285 179.656 130.16 179.883 130.08L186.799 127.635C187.026 127.555 187.266 127.52 187.507 127.533C187.747 127.546 187.983 127.606 188.2 127.709C188.417 127.813 188.612 127.959 188.773 128.138C188.934 128.317 189.058 128.526 189.139 128.753C189.219 128.98 189.254 129.22 189.241 129.461C189.228 129.701 189.168 129.937 189.064 130.154C188.961 130.372 188.815 130.566 188.636 130.727C188.457 130.888 188.248 131.013 188.021 131.093Z" fill="#004D61"/>
<path d="M189.977 136.625L183.062 139.07C182.603 139.232 182.099 139.205 181.66 138.996C181.221 138.786 180.884 138.411 180.722 137.952C180.559 137.494 180.586 136.99 180.796 136.551C181.005 136.112 181.381 135.774 181.839 135.612L188.754 133.167C188.981 133.087 189.222 133.052 189.462 133.065C189.703 133.078 189.939 133.138 190.156 133.242C190.373 133.345 190.568 133.491 190.729 133.67C190.89 133.849 191.014 134.058 191.094 134.285C191.175 134.512 191.209 134.753 191.197 134.993C191.184 135.234 191.124 135.469 191.02 135.686C190.917 135.904 190.771 136.098 190.592 136.26C190.413 136.421 190.204 136.545 189.977 136.625Z" fill="#004D61"/>
<path d="M193.112 95.4287L48.3064 146.626L48.5509 147.318L193.356 96.1202L193.112 95.4287Z" fill="#3F3D56"/>
<path d="M202.184 157.399L79.7842 200.674C76.7579 201.74 73.4323 201.562 70.5369 200.18C67.6415 198.797 65.4129 196.322 64.3399 193.298L43.3134 133.827C42.2473 130.801 42.4251 127.475 43.8079 124.58C45.1907 121.684 47.6655 119.456 50.6894 118.383L173.089 75.1073C176.115 74.0412 179.441 74.219 182.336 75.6018C185.232 76.9846 187.46 79.4594 188.533 82.4833L209.56 141.954C210.626 144.981 210.448 148.306 209.065 151.202C207.683 154.097 205.208 156.326 202.184 157.399ZM50.9339 119.074C48.0933 120.082 45.7684 122.176 44.4695 124.896C43.1705 127.616 43.0034 130.74 44.0049 133.583L65.0315 193.054C66.0394 195.894 68.133 198.219 70.8529 199.518C73.5727 200.817 76.6968 200.984 79.5397 199.983L201.939 156.707C204.78 155.699 207.105 153.606 208.404 150.886C209.703 148.166 209.87 145.042 208.868 142.199L187.842 82.7278C186.834 79.8872 184.74 77.5624 182.02 76.2634C179.301 74.9644 176.176 74.7974 173.334 75.7989L50.9339 119.074Z" fill="#3F3D56"/>
<path d="M327.372 231H0.443594C0.325946 231 0.213115 230.955 0.129925 230.876C0.0467353 230.796 0 230.688 0 230.575C0 230.463 0.0467353 230.355 0.129925 230.275C0.213115 230.195 0.325946 230.151 0.443594 230.151H327.372C327.49 230.151 327.603 230.195 327.686 230.275C327.769 230.355 327.816 230.463 327.816 230.575C327.816 230.688 327.769 230.796 327.686 230.876C327.603 230.955 327.49 231 327.372 231Z" fill="#444444"/>
</svg>
