<svg width="146" height="32" viewBox="0 0 146 32" fill="none" xmlns="http://www.w3.org/2000/svg">
<path d="M33.1491 26.2059L35.877 6.70882C37.3967 6.55752 39.5154 6.48187 42.233 6.48187C44.6152 6.48187 46.265 6.86012 47.1823 7.61319C48.0996 8.36625 48.4213 9.72451 48.1372 11.6811C47.9318 13.0944 47.528 14.15 46.929 14.8446C46.33 15.5427 45.4367 15.9485 44.2558 16.0585L44.2285 16.1995C46.816 16.4058 47.8668 18.1595 47.3774 21.4572C47.0762 23.4172 46.4395 24.7342 45.4641 25.4116C44.4886 26.089 42.8765 26.4294 40.6278 26.4294C37.3488 26.4329 34.857 26.3572 33.1491 26.2059ZM36.2159 24.0052L40.2102 24.0327C41.747 24.0327 42.8251 23.8126 43.4447 23.369C44.0642 22.9255 44.4681 22.0555 44.6529 20.7557C44.8411 19.363 44.6939 18.4243 44.2182 17.9429C43.739 17.4615 42.743 17.2139 41.2233 17.1932H37.1742L36.2159 24.0052ZM37.4823 15.0166H41.3636C42.7122 15.0166 43.6842 14.7896 44.2764 14.3392C44.8685 13.8887 45.2553 13.0394 45.4435 11.7946C45.6112 10.6082 45.4606 9.82767 44.9917 9.44942C44.5228 9.07461 43.5576 8.88548 42.0961 8.88548H38.3277L37.4823 15.0166Z" fill="white"/>
<path d="M60.3769 12.417H63.2177C62.2046 16.9009 60.8834 20.6972 59.2508 23.8057C57.7893 26.5945 56.3381 28.5717 54.904 29.7408C53.4698 30.91 51.7585 31.663 49.7699 32L49.2633 30.0503C50.4647 29.7683 51.512 29.3454 52.4122 28.778C53.3124 28.2141 54.1749 27.3544 54.9998 26.2059H53.7334C53.3021 26.2059 52.9359 26.089 52.6381 25.8517C52.3369 25.6179 52.1487 25.2912 52.0768 24.8752L49.4344 12.4135H52.3061L54.3871 23.5753C54.4419 23.8951 54.6301 24.0568 54.9484 24.0568H56.3278C56.4031 23.9261 56.5058 23.7301 56.6358 23.4791C56.7659 23.2246 56.8515 23.0595 56.8891 22.9839C58.5389 19.5384 59.7026 16.0172 60.3769 12.417Z" fill="white"/>
<path d="M68.8139 14.5351L67.7152 22.279C67.6228 22.9392 67.6809 23.3862 67.8966 23.62C68.1122 23.8573 68.5469 23.9742 69.2041 23.9742H71.2577L71.3706 26.0924C70.5458 26.3366 69.4779 26.4603 68.1635 26.4603C66.9451 26.4603 66.0688 26.1199 65.5349 25.4425C65.001 24.7651 64.8161 23.7954 64.9873 22.5334L66.1133 14.5351H63.6113L63.8646 12.5579L66.4248 12.4169L67.0169 8.37653H69.6901L69.1288 12.4169H73.349L73.0683 14.5351H68.8139Z" fill="white"/>
<path d="M84.6509 23.9192L84.8186 25.7554C83.4871 26.2815 81.6012 26.5463 79.1642 26.5463C76.8197 26.5463 75.1973 25.9308 74.2971 24.6963C73.397 23.4618 73.1163 21.5465 73.4517 18.9469C73.8077 16.2923 74.5333 14.4767 75.632 13.507C76.7273 12.5373 78.5345 12.0524 81.0467 12.0524C83.1859 12.0524 84.6372 12.4307 85.4073 13.1837C86.1774 13.9368 86.4581 15.0475 86.2527 16.5192C86.0268 17.8569 85.5031 18.8231 84.6782 19.4146C83.8534 20.0094 82.587 20.3705 80.8824 20.5012L76.1283 20.9241C76.1078 22.2239 76.3816 23.1042 76.9429 23.565C77.5042 24.0258 78.3873 24.2562 79.5852 24.2562C80.8619 24.2562 82.5493 24.1461 84.6509 23.9192ZM76.296 18.8884L80.8824 18.4655C81.745 18.4105 82.3748 18.2248 82.7684 17.9153C83.162 17.6058 83.4153 17.0625 83.5282 16.2888C83.6412 15.4051 83.494 14.8584 83.0935 14.6486C82.6896 14.4423 81.8716 14.3391 80.6326 14.3391C79.2087 14.3391 78.199 14.6348 77.6103 15.2297C77.0148 15.8212 76.5767 17.0419 76.296 18.8884Z" fill="white"/>
<path d="M92.5538 6.42682L91.794 12.135C91.6263 13.3798 91.3799 14.432 91.0615 15.2985C91.9617 14.3942 92.9509 13.6308 94.029 13.0084C95.1072 12.386 96.1066 12.0765 97.0239 12.0765C98.1123 12.0765 98.9475 12.2794 99.5259 12.6851C100.108 13.0909 100.519 13.844 100.765 14.9443C101.008 16.0447 100.97 17.5577 100.652 19.4799C100.447 21.0239 100.156 22.2824 99.7792 23.2521C99.4027 24.2218 98.9167 24.9439 98.3177 25.415C97.7187 25.8861 97.1095 26.1956 96.49 26.3469C95.8705 26.4982 95.073 26.5738 94.1009 26.5738C91.8145 26.5738 89.5076 26.2334 87.1802 25.556L89.8533 6.42682H92.5538ZM91.0068 17.4477L90.0792 24.2287C91.4278 24.2837 92.4306 24.3146 93.0878 24.3146C94.8676 24.3146 96.0416 24.0292 96.6029 23.4515C97.1643 22.8773 97.5955 21.4881 97.8967 19.2839C98.1603 17.231 98.1876 15.9106 97.9823 15.326C97.7769 14.7415 97.243 14.4492 96.3804 14.4492C95.049 14.4526 93.2589 15.4498 91.0068 17.4477Z" fill="white"/>
<path d="M114.213 26.2059H112.074L112.187 23.6613C110.537 25.5835 108.569 26.5429 106.279 26.5429C104.609 26.5429 103.486 25.9962 102.904 24.9027C102.322 23.8092 102.22 21.887 102.596 19.1395C102.801 17.6128 103.092 16.3645 103.469 15.3948C103.845 14.4251 104.342 13.703 104.961 13.2319C105.581 12.7608 106.217 12.4445 106.875 12.2863C107.532 12.1281 108.374 12.0456 109.407 12.0456C111.639 12.0456 113.881 12.2897 116.13 12.7815L114.213 26.2059ZM112.159 21.2336L113.145 14.3942C111.42 14.3564 110.455 14.3392 110.249 14.3392C109.274 14.3392 108.535 14.3873 108.028 14.4802C107.521 14.573 107.076 14.8137 106.693 15.2023C106.31 15.5874 106.026 16.0826 105.848 16.6843C105.67 17.2861 105.495 18.1733 105.327 19.339C105.064 21.3918 105.033 22.7123 105.228 23.2934C105.427 23.878 105.964 24.1702 106.847 24.1702C107.71 24.1702 108.552 23.9295 109.38 23.4481C110.198 22.9736 111.129 22.2343 112.159 21.2336Z" fill="white"/>
<path d="M121.301 12.417L121.161 15.3846C123.636 13.1632 125.802 12.0491 127.657 12.0491C128.821 12.0491 129.701 12.3826 130.3 13.0532C130.899 13.7237 131.104 14.6796 130.919 15.921L129.458 26.206H126.757L128.078 16.5984C128.191 15.7319 128.157 15.1438 127.979 14.8309C127.801 14.5215 127.411 14.3633 126.812 14.3633C126.042 14.3633 125.241 14.6005 124.406 15.0682C123.571 15.5393 122.479 16.313 121.13 17.3858L119.922 26.2025H117.194L119.135 12.4136H121.301V12.417Z" fill="white"/>
<path d="M142.902 12.4169H145.688C144.901 14.8859 143.381 16.9284 141.133 18.548C141.413 18.9813 141.694 19.528 141.978 20.1883L144.651 26.2059H141.725L139.082 19.8478C138.237 20.3017 137.152 20.8278 135.821 21.4296L135.119 26.2059H132.418L135.174 6.42682H137.902L136.663 15.694C136.495 16.8253 136.194 17.9531 135.762 19.0845C137.542 18.2351 139.086 17.2448 140.39 16.1032C141.687 14.965 142.526 13.7374 142.902 12.4169Z" fill="white"/>
<path d="M13.4753 20.03H0V26.8007H13.4753V20.03Z" fill="white"/>
<path d="M20.1667 6.53687H6.69141V20.0748H20.1667V6.53687Z" fill="white"/>
<path d="M6.64692 0H0.0924072V6.49216H6.64692V0Z" fill="white"/>
<path d="M26.5809 0H20.1188V6.49216H26.5809V0Z" fill="white"/>
</svg>
