<svg width="21" height="21" viewBox="0 0 21 21" fill="none" xmlns="http://www.w3.org/2000/svg">
<path d="M20.1538 1.01505L19.8025 0.663777C18.9175 -0.221259 17.4805 -0.221259 16.5909 0.663777L1.93302 15.3216C1.93302 15.3216 1.9239 15.3307 1.9239 15.3353C1.90109 15.3627 1.87828 15.3901 1.86459 15.4266C1.86459 15.4266 1.85547 15.4357 1.85547 15.4402L0.938497 17.8992L0.0215259 20.3536C-0.0240946 20.4813 0.00327774 20.6182 0.0990807 20.714C0.167511 20.7824 0.254191 20.8143 0.345431 20.8143C0.381928 20.8143 0.427548 20.8052 0.464045 20.7915L2.91842 19.8745L5.3728 18.953H5.38193L5.39105 18.9439C5.42755 18.9256 5.45948 18.9074 5.48685 18.88C5.48685 18.88 5.49598 18.88 5.49598 18.8709L20.1584 4.20849C20.5872 3.77965 20.8244 3.2094 20.8244 2.59808C20.8244 1.98677 20.5918 1.42564 20.1584 0.992245L20.1538 1.01505ZM0.920249 19.8974L1.39014 18.6474L2.17481 19.432L0.920249 19.8974ZM2.87737 19.1629L1.65018 17.9357L2.30711 16.1839L4.62919 18.5105L2.87737 19.1629ZM18.3838 5.02509L15.7925 2.43385L16.34 1.88641L18.9312 4.47765L18.3838 5.02509ZM19.6702 3.73859L19.4193 3.99407L16.8281 1.40283L17.079 1.14735C17.6994 0.531479 18.7031 0.531479 19.3235 1.14735L19.6748 1.50319C19.9759 1.79973 20.1401 2.20119 20.1401 2.62089C20.1401 3.0406 19.9759 3.44206 19.6748 3.74316L19.6702 3.73859Z" fill="white"/>
</svg>
