<svg width="355" height="262" viewBox="0 0 355 262" fill="none" xmlns="http://www.w3.org/2000/svg">
<path d="M345.851 231.264H74.1227C71.7063 231.264 69.3888 230.304 67.6801 228.595C65.9715 226.887 65.0115 224.569 65.0115 222.153C163.513 210.705 260.163 210.705 354.962 222.153C354.962 224.569 354.002 226.887 352.294 228.595C350.585 230.304 348.268 231.264 345.851 231.264Z" fill="#2F2E41"/>
<path d="M354.962 222.689L65.0115 222.153L98.6158 165.61L98.7766 165.342V40.7271C98.7765 39.2146 99.0743 37.7168 99.6531 36.3193C100.232 34.9219 101.08 33.6522 102.15 32.5826C103.219 31.5131 104.489 30.6647 105.886 30.0859C107.284 29.5072 108.782 29.2093 110.294 29.2095H308.072C309.584 29.2093 311.082 29.5072 312.48 30.0859C313.877 30.6647 315.147 31.5131 316.216 32.5826C317.286 33.6522 318.134 34.9219 318.713 36.3193C319.292 37.7168 319.59 39.2146 319.589 40.7271V166.199L354.962 222.689Z" fill="#3F3D56"/>
<path d="M110.032 37.2488C109.037 37.2499 108.083 37.6455 107.38 38.3489C106.677 39.0522 106.281 40.0058 106.28 41.0005V154.623C106.281 155.617 106.677 156.571 107.38 157.274C108.083 157.977 109.037 158.373 110.032 158.374H309.942C310.937 158.373 311.891 157.977 312.594 157.274C313.297 156.571 313.693 155.617 313.694 154.623V41.0005C313.693 40.0058 313.297 39.0522 312.594 38.3489C311.891 37.6456 310.937 37.2499 309.942 37.2488H110.032Z" fill="white"/>
<path d="M110.869 173.381C110.562 173.381 110.261 173.47 110.002 173.636C109.743 173.801 109.537 174.038 109.408 174.317L99.054 196.827C98.9412 197.072 98.8919 197.341 98.9106 197.61C98.9292 197.879 99.0153 198.139 99.1607 198.366C99.3062 198.593 99.5064 198.78 99.743 198.909C99.9795 199.039 100.245 199.107 100.514 199.107H318.265C318.539 199.107 318.808 199.037 319.048 198.903C319.287 198.77 319.488 198.577 319.632 198.344C319.776 198.111 319.858 197.845 319.871 197.571C319.883 197.297 319.825 197.025 319.702 196.78L308.447 174.27C308.315 174.002 308.11 173.777 307.855 173.62C307.601 173.463 307.308 173.38 307.01 173.381H110.869Z" fill="#2F2E41"/>
<path d="M209.183 35.3729C210.515 35.3729 211.595 34.2931 211.595 32.9611C211.595 31.6291 210.515 30.5493 209.183 30.5493C207.851 30.5493 206.771 31.6291 206.771 32.9611C206.771 34.2931 207.851 35.3729 209.183 35.3729Z" fill="white"/>
<path d="M187.78 203.394C187.426 203.395 187.083 203.511 186.802 203.726C186.522 203.941 186.32 204.243 186.228 204.584L183.63 214.231C183.566 214.469 183.557 214.719 183.605 214.961C183.653 215.204 183.756 215.431 183.906 215.627C184.056 215.823 184.25 215.982 184.471 216.091C184.692 216.2 184.936 216.257 185.183 216.257H234.578C234.834 216.257 235.087 216.196 235.315 216.078C235.543 215.961 235.739 215.791 235.888 215.582C236.036 215.373 236.133 215.132 236.169 214.878C236.206 214.624 236.181 214.366 236.097 214.123L232.758 204.476C232.648 204.16 232.443 203.886 232.171 203.693C231.898 203.499 231.573 203.394 231.238 203.394H187.78Z" fill="#2F2E41"/>
<path d="M319.589 163.466V165.609H98.6157L98.782 165.342V163.466H319.589Z" fill="#2F2E41"/>
<path d="M313.426 75.0335C334.146 75.0335 350.943 58.2367 350.943 37.5167C350.943 16.7968 334.146 0 313.426 0C292.706 0 275.909 16.7968 275.909 37.5167C275.909 58.2367 292.706 75.0335 313.426 75.0335Z" fill="#47A138"/>
<path d="M328.969 53.8634H297.883C297.315 53.8628 296.77 53.6368 296.368 53.2349C295.966 52.8329 295.74 52.288 295.74 51.7196V32.9612C295.74 32.3928 295.966 31.8479 296.368 31.446C296.77 31.044 297.315 30.818 297.883 30.8174H328.969C329.537 30.818 330.082 31.044 330.484 31.446C330.886 31.8479 331.112 32.3928 331.112 32.9612V51.7196C331.112 52.288 330.886 52.8329 330.484 53.2349C330.082 53.6368 329.537 53.8628 328.969 53.8634ZM297.883 32.9612V51.7196H328.97L328.969 32.9612L297.883 32.9612Z" fill="white"/>
<path d="M323.073 32.9613H303.779V24.3861C303.779 18.175 307.836 13.667 313.426 13.667C319.016 13.667 323.073 18.175 323.073 24.3861L323.073 32.9613ZM305.923 30.8175H320.929V24.3861C320.929 19.3371 317.844 15.8108 313.426 15.8108C309.008 15.8108 305.923 19.3372 305.923 24.3861L305.923 30.8175Z" fill="white"/>
<path d="M313.426 43.948C314.61 43.948 315.57 42.9882 315.57 41.8042C315.57 40.6202 314.61 39.6604 313.426 39.6604C312.242 39.6604 311.282 40.6202 311.282 41.8042C311.282 42.9882 312.242 43.948 313.426 43.948Z" fill="white"/>
<path d="M287.236 119.835H132.738C131.979 119.834 131.252 119.532 130.716 118.996C130.179 118.46 129.878 117.732 129.877 116.974V78.6494C129.878 77.8909 130.179 77.1637 130.716 76.6273C131.252 76.0909 131.979 75.7892 132.738 75.7883H287.236C287.995 75.7892 288.722 76.0909 289.258 76.6273C289.795 77.1637 290.096 77.8909 290.097 78.6494V116.974C290.096 117.732 289.795 118.46 289.258 118.996C288.722 119.532 287.995 119.834 287.236 119.835ZM132.738 76.9328C132.283 76.9333 131.846 77.1143 131.525 77.4361C131.203 77.7579 131.022 78.1943 131.021 78.6494V116.974C131.022 117.429 131.203 117.865 131.525 118.187C131.846 118.509 132.283 118.69 132.738 118.69H287.236C287.691 118.69 288.128 118.509 288.449 118.187C288.771 117.865 288.952 117.429 288.953 116.974V78.6494C288.952 78.1943 288.771 77.7579 288.449 77.4361C288.128 77.1143 287.691 76.9333 287.236 76.9328L132.738 76.9328Z" fill="#E6E6E6"/>
<path d="M156.744 107.995C163.18 107.995 168.398 102.777 168.398 96.3408C168.398 89.9042 163.18 84.6863 156.744 84.6863C150.307 84.6863 145.089 89.9042 145.089 96.3408C145.089 102.777 150.307 107.995 156.744 107.995Z" fill="#E6E6E6"/>
<path d="M183.66 88.5713C183.405 88.5709 183.152 88.6208 182.916 88.7183C182.68 88.8157 182.465 88.9587 182.285 89.1391C182.104 89.3195 181.96 89.5338 181.863 89.7697C181.765 90.0055 181.715 90.2584 181.715 90.5137C181.715 90.769 181.765 91.0219 181.863 91.2577C181.96 91.4936 182.104 91.7079 182.285 91.8883C182.465 92.0687 182.68 92.2117 182.916 92.3091C183.152 92.4066 183.405 92.4565 183.66 92.4561H275.231C275.746 92.4561 276.24 92.2515 276.604 91.8872C276.969 91.5229 277.173 91.0289 277.173 90.5137C277.173 89.9985 276.969 89.5045 276.604 89.1402C276.24 88.7759 275.746 88.5713 275.231 88.5713H183.66Z" fill="#E6E6E6"/>
<path d="M183.66 100.226C183.145 100.226 182.651 100.43 182.287 100.795C181.922 101.159 181.718 101.653 181.718 102.168C181.718 102.683 181.922 103.177 182.287 103.542C182.651 103.906 183.145 104.111 183.66 104.111H223.063C223.579 104.111 224.073 103.906 224.437 103.542C224.801 103.177 225.006 102.683 225.006 102.168C225.006 101.653 224.801 101.159 224.437 100.795C224.073 100.43 223.579 100.226 223.063 100.226H183.66Z" fill="#E6E6E6"/>
<path d="M102.65 84.9121C103.422 84.7943 104.211 84.879 104.94 85.1582C105.669 85.4375 106.313 85.9017 106.808 86.5049C107.533 87.3876 107.896 88.5133 107.823 89.6533C107.749 90.7933 107.244 91.8624 106.412 92.6445L97.9409 100.602L70.1519 115.375L69.8257 103.959C79.0328 102.385 87.8101 99.6797 95.9419 95.3057L96.1011 95.2207L96.1685 95.0537L99.1558 87.6738C99.4487 86.9501 99.925 86.3143 100.538 85.8301C101.15 85.3461 101.878 85.0299 102.65 84.9121Z" stroke="black"/>
<path d="M28.4515 188.678C28.2432 187.914 28.1989 187.114 28.3217 186.332C28.4445 185.549 28.7315 184.802 29.1639 184.138L35.4378 174.51C36.9217 172.232 39.1986 170.587 41.8269 169.894C44.4551 169.201 47.2471 169.508 49.6614 170.757C47.0247 175.245 47.3922 179.183 50.572 182.604C45.6358 185.014 41.0736 188.124 37.0267 191.838C36.2879 192.342 35.4395 192.662 34.552 192.771C33.6646 192.881 32.7639 192.776 31.9249 192.467C31.086 192.158 30.333 191.653 29.7289 190.994C29.1247 190.335 28.6867 189.541 28.4515 188.678Z" fill="#2F2E41"/>
<path d="M99.5363 176.089C98.5869 177.671 97.2468 178.983 95.6445 179.898C94.0423 180.813 92.2316 181.301 90.3864 181.315L48.7071 181.631L46.8995 171.147L65.3371 165.724L49.7917 153.794L66.7831 133.91L97.645 162.674C99.4488 164.356 100.621 166.605 100.965 169.047C101.309 171.488 100.805 173.974 99.5363 176.089Z" fill="#8B8B8B"/>
<path d="M42.1997 247.789H32.4386C23.6746 187.715 14.7537 127.473 41.1152 104.988L72.206 110.05L68.2293 136.441L50.8762 156.324L42.1997 247.789Z" fill="#8B8B8B"/>
<path d="M50.7802 261.398C50.0161 261.606 49.2165 261.65 48.434 261.528C47.6515 261.405 46.9039 261.118 46.2403 260.685L35.6418 259.261C33.3644 257.777 31.7193 255.5 31.0258 252.872C30.3322 250.244 30.6397 247.452 31.8884 245.038C36.3768 247.674 40.314 247.306 43.7355 244.126C46.153 249.008 50.1362 248.71 53.9403 252.822C54.444 253.561 54.7638 254.409 54.8732 255.297C54.9827 256.184 54.8784 257.085 54.5693 257.924C54.2601 258.763 53.7549 259.516 53.0958 260.12C52.4368 260.724 51.6428 261.162 50.7802 261.398Z" fill="#2F2E41"/>
<path d="M70.3051 120.935C57.1464 129.902 47.8488 121.242 40.7537 107.881C41.7396 99.7048 40.1433 89.9208 37.1867 79.2897C35.8718 74.6007 36.3627 69.589 38.5625 65.2443C40.7623 60.8995 44.511 57.5373 49.0687 55.8215L64.6141 62.3289C77.814 73.0883 80.4121 84.7429 75.4598 97.035L70.3051 120.935Z" fill="#3F3D56"/>
<path d="M31.876 73.627L17.7451 81.0469L16.9521 81.4639L17.7236 81.9199L43.2451 97.0166L46.7539 105.671C46.9667 106.196 47.0703 106.759 47.0586 107.325C47.0468 107.892 46.9201 108.45 46.6855 108.966C46.451 109.482 46.1135 109.944 45.6943 110.325C45.2752 110.706 44.7827 110.999 44.2471 111.184C43.6383 111.393 42.9892 111.46 42.3506 111.377C41.7119 111.294 41.1006 111.064 40.5654 110.706C40.0304 110.348 39.5855 109.87 39.2656 109.312C38.9457 108.753 38.7595 108.126 38.7217 107.483L38.3604 101.344L38.3408 101.005L38.0186 100.898L5.39453 90.1328C4.36745 89.7939 3.43123 89.2251 2.65625 88.4707C1.88125 87.7162 1.28726 86.795 0.920898 85.7773C0.387029 84.2941 0.359884 82.6752 0.84375 81.1748C1.32767 79.6745 2.2958 78.3772 3.5957 77.4854L29.2012 59.917L31.876 73.627Z" stroke="black"/>
<path d="M46.8996 75.3437C40.8685 72.7006 35.3843 75.5718 28.462 77.8743L27.3775 58.7137C34.251 55.0502 40.8045 54.0625 46.8996 56.9061L46.8996 75.3437Z" fill="#3F3D56"/>
<path d="M52.8901 18.4402C57.7733 18.4403 62.4564 20.3713 65.9086 23.8074C69.3607 27.2434 71.2992 31.9032 71.2993 36.7615V50.8074C71.2985 51.3443 71.0837 51.8596 70.7016 52.24C70.3193 52.6203 69.8007 52.835 69.2592 52.8357H36.5209C35.9792 52.8351 35.46 52.6205 35.0776 52.24C34.743 51.9069 34.5363 51.4704 34.4897 51.0066L34.4799 50.8064V36.7615C34.4799 31.9031 36.4193 27.2435 39.8715 23.8074C43.3239 20.3712 48.0068 18.4402 52.8901 18.4402Z" stroke="black"/>
<path d="M68.9925 46.0009C72.6707 39.2724 70.1978 30.8361 63.4693 27.1579C56.7408 23.4798 48.3045 25.9526 44.6263 32.6812C40.9482 39.4097 43.421 47.846 50.1495 51.5241C56.8781 55.2023 65.3144 52.7295 68.9925 46.0009Z" fill="#47A138"/>
<path d="M62.7742 46.2131C63.0843 46.0772 63.3675 45.8597 63.6049 45.5753C63.762 45.3725 63.8818 45.1291 63.9559 44.8622C64.03 44.5953 64.0566 44.3113 64.0339 44.0301C64.0207 43.8298 63.9707 43.6359 63.8878 43.4637C63.8049 43.2916 63.6913 43.1458 63.556 43.0377C63.2049 42.7672 62.7409 42.7774 62.2725 43.0494L62.2184 38.3047L61.838 38.3115L61.9015 43.8894L62.1911 43.6515C62.527 43.376 63.0095 43.1762 63.3566 43.4437C63.4425 43.5146 63.5142 43.6092 63.5661 43.7204C63.618 43.8316 63.6487 43.9563 63.6559 44.0847C63.6719 44.2942 63.6517 44.5055 63.5966 44.7043C63.5416 44.9031 63.4531 45.0847 63.337 45.2368C62.9246 45.7495 62.3141 45.9212 61.6174 46.0784L61.6848 46.5474C62.0552 46.477 62.4198 46.3651 62.7742 46.2131Z" fill="black"/>
<path d="M69.3738 39.3654L65.741 39.9155L65.8432 40.5899L69.4759 40.0398L69.3738 39.3654Z" fill="black"/>
<path d="M50.8057 39.3654L54.4384 39.9155L54.3363 40.5899L50.7035 40.0398L50.8057 39.3654Z" fill="black"/>
<path d="M58.5202 23.2888H61.32L61.6755 23.2937C65.3453 23.3911 68.8468 24.9296 71.4528 27.6033C74.0943 30.3134 75.6027 33.9727 75.6608 37.8044H56.7653L56.5944 35.3435L55.6227 35.2146L54.7214 37.8044H52.485L52.113 32.4705L51.1423 32.3406L49.2409 37.8044H44.1804C44.2385 33.9728 45.7461 30.3133 48.3874 27.6033C50.9933 24.9297 54.4951 23.3913 58.1647 23.2937L58.5202 23.2888Z" stroke="black"/>
</svg>
